<svg width="338" height="19" viewBox="0 0 338 19" fill="none" xmlns="http://www.w3.org/2000/svg">
<path d="M17.2907 17.5665L19.3011 2.31186H22.5167L20.5048 17.5665H17.2907ZM32.1224 2.6407C31.4855 2.33165 30.4872 2 29.2405 2C26.063 2 23.825 4.06899 23.8058 7.03427C23.7879 9.22622 25.4037 10.4491 26.6234 11.1787C27.8752 11.9266 28.2959 12.4034 28.2899 13.071C28.2818 14.0936 27.2903 14.5605 26.366 14.5605C25.079 14.5605 24.3952 14.3293 23.3392 13.76L22.9247 13.5175L22.4735 16.9324C23.2245 17.3584 24.6133 17.7271 26.0555 17.7463C29.4357 17.7463 31.6301 15.7009 31.655 12.5343C31.667 10.7989 30.8104 9.47846 28.9551 8.38962C27.8312 7.68393 27.1428 7.21303 27.1501 6.49845C27.1501 5.86438 27.7328 5.18635 28.9918 5.18635C30.0432 5.16524 30.8051 5.46174 31.3985 5.77079L31.6867 5.94682L32.1224 2.6407ZM40.3974 2.31162H37.9127C37.143 2.31162 36.5668 2.58327 36.2289 3.57666L31.4532 17.5564H34.8299C34.8299 17.5564 35.3819 15.6768 35.5067 15.264C35.8757 15.264 39.1561 15.2705 39.625 15.2705C39.7212 15.8046 40.0162 17.5564 40.0162 17.5564H43L40.3974 2.31115V2.31162ZM36.4551 12.1621C36.7211 11.2832 37.7363 7.89775 37.7363 7.89775C37.7174 7.93835 38.0003 7.01455 38.1626 6.4418L38.3799 7.75702C38.3799 7.75702 38.9956 11.3984 39.1244 12.1619H36.4551V12.1621ZM14.5609 2.31162L11.4127 12.7146L11.0773 10.6006C10.4912 8.16356 8.66525 5.52322 6.6239 4.20138L9.50257 17.5421L12.9048 17.5372L17.9673 2.31147L14.5609 2.31139" fill="#0E4595"/>
<path d="M5.22634 2.90564H0.0411007L0 3.22303C4.03406 4.48572 6.70324 7.53719 7.81151 11.2041L6.68402 4.19397C6.48942 3.22801 5.92486 2.93969 5.22646 2.90603" fill="#F2AE14"/>
<path d="M142 13.5897C142 15.3485 139.494 16.7746 136.401 16.7746H106V4.18539C106 2.42616 108.506 1 111.6 1H142L142 13.5897L142 13.5897Z" fill="#FDFDFD"/>
<path d="M132.089 9.16373C132.957 9.17447 133.83 9.14192 134.695 9.18064C135.571 9.27357 135.782 10.0277 135.004 10.2747C134.473 10.4374 133.842 10.3353 133.267 10.364H132.089V9.16373ZM135.197 7.80519C135.39 8.19249 134.734 8.54023 134.078 8.48689H132.089C132.103 8.12166 132.062 7.72523 132.109 7.37922C132.906 7.39199 133.71 7.35319 134.502 7.39951C134.843 7.44816 135.128 7.60732 135.197 7.80519ZM139.984 2.06167C140.021 2.80131 139.99 3.58005 140 4.33469C139.998 7.40281 140.006 10.4708 139.996 13.5391C139.961 14.689 138.17 15.6881 136.162 15.711C134.152 15.7157 132.142 15.7118 130.133 15.713V11.0747C132.322 11.0683 134.513 11.0877 136.702 11.065C137.718 11.0287 138.83 10.6476 138.877 10.012C138.997 9.37369 137.939 8.93217 136.934 8.86244C136.548 8.85673 136.559 8.79841 136.934 8.77297C137.892 8.65518 138.645 8.09114 138.363 7.52626C138.123 6.93213 136.968 6.70217 136.008 6.70332C134.05 6.69575 132.091 6.70226 130.133 6.70006C130.146 5.83414 130.107 4.96728 130.154 4.102C130.309 2.9729 132.146 2.04177 134.125 2.06197C136.079 2.0618 138.032 2.0618 139.984 2.06176V2.06167Z" fill="url(#paint0_linear_1_102)"/>
<path d="M108.005 4.21872C108.055 3.07069 109.854 2.07976 111.859 2.06298C113.862 2.05947 115.864 2.06247 117.866 2.06146C117.861 5.90251 117.877 9.744 117.858 13.5848C117.781 14.7189 116.001 15.691 114.018 15.711C112.012 15.7152 110.006 15.7116 108 15.7128V10.9181C109.948 11.1799 111.992 11.2913 113.979 11.1177C115.168 11.0089 116.468 10.677 116.87 9.97589C117.166 9.37614 116.999 8.74494 117.043 8.12939V6.69984H113.603C113.588 7.64531 113.635 8.59242 113.578 9.53674C113.486 10.1172 112.475 10.486 111.513 10.4663C110.319 10.4735 107.954 9.97424 107.954 9.97424C107.948 8.20284 107.988 5.98442 108.005 4.21889V4.21872Z" fill="url(#paint1_linear_1_102)"/>
<path d="M119.15 7.27667C118.969 7.29852 119.113 6.92584 119.067 6.78447C119.079 5.89061 119.041 4.99578 119.088 4.10256C119.243 2.96869 121.094 2.03523 123.081 2.06177H128.934C128.929 5.90283 128.945 9.74431 128.926 13.5852C128.849 14.7192 127.069 15.6912 125.085 15.7114C123.079 15.7157 121.073 15.712 119.067 15.7131V10.4599C120.437 11.0993 122.299 11.1988 124.006 11.2005C125.293 11.2003 126.572 11.0874 127.822 10.9186V9.95622C126.414 10.3554 124.758 10.609 123.197 10.3796C122.108 10.2255 121.318 9.62686 121.335 8.98764C121.209 8.32288 121.894 7.62107 123.043 7.42345C124.469 7.16953 126.023 7.36373 127.359 7.69384C127.646 7.77913 127.936 7.88491 127.822 7.61266V6.85619C125.586 6.55368 123.207 6.44236 120.961 6.77146C120.311 6.87576 119.678 7.03395 119.15 7.27675V7.27667Z" fill="url(#paint2_linear_1_102)"/>
<path d="M63.246 9.88745C63.246 14.2438 59.609 17.7746 55.1228 17.7746C50.6365 17.7746 47 14.2436 47 9.88745C47 5.53159 50.6366 2.00031 55.1228 2.00031C59.6089 2.00031 63.246 5.53177 63.246 9.88745Z" fill="#D9222A"/>
<path d="M66.0284 2C63.9296 2 62.0171 2.77316 60.5755 4.04174C60.2818 4.3005 60.0076 4.57943 59.7553 4.87641H61.3964C61.6211 5.14168 61.828 5.42069 62.0157 5.71179H59.1361C58.9629 5.98079 58.8066 6.25968 58.6681 6.547H62.4834C62.6144 6.81876 62.7292 7.09756 62.8274 7.38202H58.3242C58.2296 7.65594 58.1508 7.93478 58.0881 8.21723H63.0632C63.1848 8.76603 63.2462 9.32586 63.2461 9.88728C63.2461 10.7632 63.0988 11.6058 62.8273 12.3928H58.3241C58.4221 12.6774 58.5368 12.9562 58.6679 13.228H62.4833C62.3447 13.5154 62.1883 13.7943 62.0151 14.0634H59.136C59.3236 14.3543 59.5305 14.6331 59.7552 14.8981H61.396C61.144 15.1956 60.8697 15.4749 60.5756 15.7335C62.0172 17.0018 63.9296 17.7746 66.0285 17.7746C70.5148 17.7746 74.1517 14.2436 74.1517 9.8875C74.1517 5.53182 70.5148 2.00035 66.0285 2.00035" fill="#EE9F2D"/>
<path d="M73.0685 14.2841C73.0685 14.1435 73.1858 14.0292 73.3308 14.0292C73.4758 14.0292 73.5931 14.1435 73.5931 14.2841C73.5931 14.4247 73.4758 14.539 73.3308 14.539C73.1858 14.539 73.0685 14.4247 73.0685 14.2841ZM73.3308 14.4778C73.4409 14.4778 73.5302 14.3911 73.5303 14.2841C73.5303 14.1773 73.4411 14.0907 73.3311 14.0906H73.3308C73.2209 14.0905 73.1317 14.1769 73.1315 14.2835V14.2842C73.1314 14.3911 73.2206 14.4778 73.3306 14.4778C73.3307 14.4778 73.3307 14.4778 73.3308 14.4778ZM73.2954 14.3961H73.2416V14.1722H73.3389C73.3593 14.1722 73.38 14.1722 73.3979 14.1833C73.4166 14.1956 73.4272 14.2172 73.4272 14.2395C73.4272 14.2646 73.4119 14.288 73.3872 14.2972L73.4296 14.396H73.3701L73.3349 14.3074H73.2954L73.2954 14.3961ZM73.2954 14.2691H73.3251C73.3363 14.2691 73.348 14.27 73.358 14.2647C73.3668 14.2592 73.3714 14.2489 73.3714 14.239C73.3712 14.2298 73.3663 14.2214 73.3583 14.2163C73.349 14.2106 73.3341 14.2118 73.324 14.2118H73.2954V14.2691ZM53.226 10.7512C53.1334 10.7407 53.0927 10.7379 53.0291 10.7379C52.5293 10.7379 52.2762 10.9043 52.2762 11.233C52.2762 11.4356 52.3997 11.5646 52.5924 11.5646C52.9517 11.5646 53.2105 11.2324 53.226 10.7512ZM53.8673 12.201H53.1366L53.1534 11.8637C52.9305 12.1302 52.6332 12.2569 52.2291 12.2569C51.7511 12.2569 51.4234 11.8944 51.4234 11.3681C51.4234 10.5761 51.9934 10.114 52.9718 10.114C53.0717 10.114 53.2 10.1227 53.3312 10.139C53.3585 10.0318 53.3657 9.98577 53.3657 9.92808C53.3657 9.71242 53.212 9.63206 52.8 9.63206C52.3686 9.62731 52.0128 9.73184 51.8667 9.77851C51.8759 9.72451 51.9889 9.04652 51.9889 9.04652C52.4284 8.92147 52.7182 8.87441 53.0444 8.87441C53.8016 8.87441 54.2027 9.20453 54.2019 9.82842C54.2034 9.99561 54.1749 10.2019 54.1304 10.4731C54.0539 10.9447 53.8897 11.9547 53.8673 12.201ZM51.0545 12.201H50.1726L50.6777 9.12535L49.5498 12.201H48.9489L48.8746 9.14292L48.3437 12.201H47.5182L48.2077 8.20002H49.4757L49.5526 10.4395L50.3261 8.20002H51.7365L51.0545 12.201ZM67.1177 10.7512C67.0255 10.7407 66.9846 10.7379 66.9212 10.7379C66.4215 10.7379 66.1684 10.9043 66.1684 11.233C66.1684 11.4356 66.2918 11.5646 66.4844 11.5646C66.8437 11.5646 67.1028 11.2324 67.1177 10.7512ZM67.7595 12.201H67.0289L67.0454 11.8637C66.8225 12.1302 66.525 12.2569 66.1213 12.2569C65.6432 12.2569 65.3158 11.8944 65.3158 11.3681C65.3158 10.5761 65.8854 10.114 66.864 10.114C66.9639 10.114 67.092 10.1227 67.223 10.139C67.2504 10.0318 67.2576 9.98577 67.2576 9.92808C67.2576 9.71242 67.1041 9.63206 66.6921 9.63206C66.2607 9.62731 65.9053 9.73184 65.7586 9.77851C65.7678 9.72451 65.8812 9.04652 65.8812 9.04652C66.3207 8.92147 66.6103 8.87441 66.9361 8.87441C67.6937 8.87441 68.0948 9.20453 68.094 9.82842C68.0955 9.99561 68.067 10.2019 68.0226 10.4731C67.9464 10.9447 67.7818 11.9547 67.7595 12.201ZM57.7864 12.1516C57.545 12.2253 57.3569 12.2569 57.1528 12.2569C56.702 12.2569 56.456 12.0054 56.456 11.5422C56.4496 11.3984 56.5208 11.0202 56.5769 10.6749C56.6278 10.371 56.9592 8.4547 56.9592 8.4547H57.8358L57.7334 8.94717H58.2628L58.1432 9.72912H57.6119C57.5101 10.3479 57.3651 11.1187 57.3634 11.2209C57.3634 11.3885 57.4556 11.4618 57.6653 11.4618C57.7658 11.4618 57.8436 11.4518 57.903 11.431L57.7864 12.1516ZM60.474 12.1252C60.1729 12.2146 59.8823 12.2578 59.5744 12.257C58.5932 12.2561 58.0817 11.7585 58.0817 10.8056C58.0817 9.69335 58.7324 8.87458 59.6157 8.87458C60.3384 8.87458 60.8 9.333 60.8 10.052C60.8 10.2905 60.7683 10.5234 60.6919 10.8522H58.9464C58.8873 11.3242 59.1984 11.5208 59.7083 11.5208C60.0221 11.5208 60.3051 11.4581 60.6198 11.316L60.474 12.1252ZM59.9813 10.1962C59.9861 10.1284 60.0743 9.61549 59.5734 9.61549C59.2942 9.61549 59.0945 9.82218 59.0132 10.1962H59.9813ZM54.3963 9.9758C54.3963 10.3874 54.6018 10.6712 55.0679 10.8843C55.425 11.0473 55.4802 11.0956 55.4802 11.2433C55.4802 11.4461 55.3228 11.5377 54.9738 11.5377C54.7108 11.5377 54.466 11.4978 54.1838 11.4093C54.1838 11.4093 54.0678 12.1265 54.0625 12.1608C54.263 12.2033 54.4417 12.2425 54.9802 12.257C55.9107 12.257 56.3404 11.913 56.3404 11.1695C56.3404 10.7224 56.1605 10.4601 55.7188 10.2629C55.349 10.0981 55.3066 10.0613 55.3066 9.90936C55.3066 9.73343 55.4531 9.6437 55.7382 9.6437C55.9113 9.6437 56.1477 9.66163 56.3717 9.69256L56.4973 8.9379C56.269 8.90275 55.9228 8.87454 55.7212 8.87454C54.7347 8.87458 54.3932 9.37492 54.3963 9.9758ZM64.7631 8.96009C65.008 8.96009 65.2363 9.02253 65.551 9.17632L65.6953 8.30794C65.5661 8.25868 65.1114 7.9696 64.7261 7.9696C64.136 7.9696 63.6371 8.25394 63.2862 8.72317C62.7744 8.55857 62.5641 8.89124 62.3062 9.22263L62.0771 9.27443C62.0944 9.16533 62.11 9.05693 62.1047 8.94726H61.2949C61.1843 9.95422 60.9882 10.9741 60.8347 11.9824L60.7947 12.201H61.6769C61.8241 11.272 61.9048 10.6772 61.9539 10.2746L62.2861 10.0952C62.3357 9.91599 62.491 9.85536 62.8027 9.8627C62.7608 10.0827 62.7399 10.3061 62.7401 10.5299C62.7401 11.5943 63.3316 12.257 64.281 12.257C64.5255 12.257 64.7354 12.2258 65.0603 12.1403L65.2155 11.2281C64.9232 11.3679 64.6834 11.4336 64.4661 11.4336C63.9535 11.4336 63.6433 11.0662 63.6433 10.4588C63.6433 9.57779 64.1047 8.96009 64.7631 8.96009Z" fill="black"/>
<path d="M51.3085 11.9631H50.4264L50.932 8.88787L49.804 11.9631H49.2029L49.1286 8.90545L48.5977 11.9631H47.7722L48.4617 7.96277H49.7297L49.7654 10.4393L50.6208 7.96277H51.9905L51.3085 11.9631Z" fill="white"/>
<path d="M72.2288 8.20013L72.0333 9.35614C71.7921 9.04799 71.533 8.825 71.191 8.825C70.7461 8.825 70.3411 9.15257 70.0759 9.63458C69.7068 9.56024 69.3249 9.43409 69.3249 9.43409L69.3247 9.43703C69.3545 9.16751 69.3664 9.00313 69.3637 8.94728H68.5537C68.4434 9.95424 68.2473 10.9741 68.0941 11.9824L68.0536 12.201H68.9357C69.0549 11.4499 69.146 10.8261 69.2132 10.3314C69.5145 10.067 69.6654 9.83635 69.9699 9.85173C69.8351 10.1683 69.7561 10.5329 69.7561 10.907C69.7561 11.7205 70.1799 12.2571 70.821 12.2571C71.1442 12.2571 71.3921 12.1489 71.6341 11.898L71.5927 12.2005H72.427L73.0986 8.20018L72.2288 8.20013ZM71.126 11.4491C70.8258 11.4491 70.6742 11.2334 70.6742 10.8077C70.6742 10.1682 70.958 9.71473 71.3581 9.71473C71.661 9.71473 71.8251 9.939 71.8251 10.3522C71.8251 10.9972 71.5368 11.4491 71.126 11.4491Z" fill="black"/>
<path d="M53.4798 10.514C53.3874 10.5036 53.3465 10.5009 53.2831 10.5009C52.7833 10.5009 52.5304 10.6673 52.5304 10.9959C52.5304 11.1982 52.6539 11.3275 52.8462 11.3275C53.2059 11.3275 53.4647 10.9954 53.4798 10.514ZM54.1214 11.9633H53.3908L53.4074 11.6266C53.1847 11.8926 52.887 12.0199 52.4833 12.0199C52.0051 12.0199 51.6776 11.6574 51.6776 11.131C51.6776 10.3387 52.2474 9.87689 53.2259 9.87689C53.3259 9.87689 53.4541 9.88568 53.5852 9.90198C53.6125 9.79473 53.6197 9.74877 53.6197 9.69072C53.6197 9.47502 53.4662 9.39505 53.0542 9.39505C52.6226 9.39031 52.267 9.49484 52.1207 9.54098C52.1299 9.48715 52.2429 8.80995 52.2429 8.80995C52.6822 8.68437 52.9724 8.63732 53.2982 8.63732C54.0556 8.63732 54.4568 8.96761 54.4561 9.59098C54.4574 9.75887 54.4288 9.96504 54.3844 10.2358C54.3081 10.707 54.1437 11.7176 54.1214 11.9633ZM65.9494 8.07063L65.805 8.93918C65.4905 8.78557 65.262 8.723 65.0173 8.723C64.3589 8.723 63.8973 9.3407 63.8973 10.2216C63.8973 10.8289 64.2076 11.1962 64.7202 11.1962C64.9374 11.1962 65.1771 11.1307 65.4693 10.9908L65.3145 11.9026C64.9894 11.9885 64.7798 12.0199 64.535 12.0199C63.5858 12.0199 62.9941 11.3571 62.9941 10.2926C62.9941 8.86242 63.8114 7.86279 64.9802 7.86279C65.3651 7.86284 65.8201 8.02137 65.9494 8.07063ZM67.3723 10.514C67.2799 10.5036 67.2392 10.5009 67.1756 10.5009C66.676 10.5009 66.4229 10.6673 66.4229 10.9959C66.4229 11.1982 66.5464 11.3275 66.7389 11.3275C67.0981 11.3275 67.3572 10.9954 67.3723 10.514ZM68.0139 11.9633H67.2831L67.2998 11.6266C67.077 11.8926 66.7794 12.0199 66.3757 12.0199C65.8977 12.0199 65.5701 11.6574 65.5701 11.131C65.5701 10.3387 66.1401 9.87689 67.1182 9.87689C67.2184 9.87689 67.3464 9.88568 67.4776 9.90198C67.5048 9.79473 67.5121 9.74877 67.5121 9.69072C67.5121 9.47502 67.3586 9.39505 66.9467 9.39505C66.5153 9.39031 66.1595 9.49484 66.0131 9.54098C66.0224 9.48715 66.1355 8.80995 66.1355 8.80995C66.5749 8.68437 66.8648 8.63732 67.1906 8.63732C67.9482 8.63732 68.3492 8.96761 68.3483 9.59098C68.3498 9.75887 68.3213 9.96504 68.2768 10.2358C68.2007 10.707 68.036 11.7176 68.0139 11.9633ZM58.0407 11.9141C57.7992 11.9878 57.611 12.0199 57.4072 12.0199C56.9564 12.0199 56.7104 11.7683 56.7104 11.3051C56.7041 11.161 56.7754 10.7831 56.8314 10.4379C56.8821 10.1335 57.2136 8.21743 57.2136 8.21743H58.09L57.9878 8.71008H58.4376L58.3179 9.49168H57.8665C57.7647 10.1109 57.6193 10.881 57.6178 10.9834C57.6178 11.1517 57.7101 11.2243 57.9196 11.2243C58.0202 11.2243 58.0978 11.2148 58.1574 11.1939L58.0407 11.9141ZM60.7283 11.8881C60.4274 11.9774 60.1365 12.0204 59.8287 12.0199C58.8475 12.0189 58.336 11.5213 58.336 10.5684C58.336 9.45582 58.9867 8.63727 59.87 8.63727C60.5927 8.63727 61.0543 9.09552 61.0543 9.81485C61.0543 10.0536 61.0226 10.2865 60.9464 10.6151H59.2009C59.1418 11.087 59.4529 11.2839 59.9628 11.2839C60.2764 11.2839 60.5596 11.2209 60.8741 11.0784L60.7283 11.8881ZM60.2355 9.95858C60.2407 9.891 60.3287 9.37783 59.8276 9.37783C59.5485 9.37783 59.3489 9.58509 59.2676 9.95858H60.2355ZM54.6504 9.73866C54.6504 10.1502 54.856 10.4337 55.3221 10.6471C55.6792 10.8101 55.7344 10.8585 55.7344 11.0062C55.7344 11.209 55.5768 11.3005 55.2281 11.3005C54.9649 11.3005 54.7202 11.2606 54.4377 11.1722C54.4377 11.1722 54.3221 11.8893 54.3168 11.9236C54.5169 11.9661 54.6958 12.0049 55.2343 12.0199C56.165 12.0199 56.5946 11.6759 56.5946 10.9325C56.5946 10.4852 56.4149 10.2229 55.9729 10.0258C55.6034 9.86059 55.5606 9.82434 55.5606 9.67222C55.5606 9.49647 55.7074 9.40599 55.9924 9.40599C56.1653 9.40599 56.4017 9.42449 56.6261 9.45543L56.7515 8.70059C56.5233 8.66544 56.1771 8.63727 55.9756 8.63727C54.9889 8.63727 54.6476 9.13726 54.6504 9.73866ZM72.6812 11.9633H71.8468L71.8883 11.6604C71.6464 11.9116 71.3985 12.0199 71.0752 12.0199C70.4342 12.0199 70.0105 11.4832 70.0105 10.6698C70.0105 9.58755 70.6677 8.67528 71.4454 8.67528C71.7875 8.67528 72.0463 8.81092 72.2873 9.11889L72.483 7.96293H73.3528L72.6812 11.9633ZM71.3804 11.2116C71.791 11.2116 72.0795 10.7597 72.0795 10.1151C72.0795 9.70188 71.9153 9.47762 71.6123 9.47762C71.2124 9.47762 70.9283 9.93085 70.9283 10.5706C70.9283 10.9962 71.0802 11.2116 71.3804 11.2116ZM68.8081 8.71012C68.6977 9.71709 68.5017 10.7371 68.3483 11.7447L68.3079 11.9634H69.1899C69.5054 9.974 69.5817 9.58549 70.0763 9.63417C70.1552 9.22698 70.3018 8.87037 70.4112 8.69039C70.0418 8.6157 69.8355 8.81839 69.5655 9.20339C69.5868 9.03695 69.6258 8.87529 69.6181 8.71017L68.8081 8.71012ZM61.5488 8.71012C61.4381 9.71709 61.242 10.7371 61.0887 11.7447L61.0485 11.9634H61.9309C62.246 9.974 62.3222 9.58549 62.8165 9.63417C62.8957 9.22698 63.0424 8.87037 63.1513 8.69039C62.7824 8.6157 62.5759 8.81839 62.3061 9.20339C62.3274 9.03695 62.366 8.87529 62.3587 8.71017L61.5488 8.71012ZM73.0686 11.7086C73.0685 11.568 73.1857 11.454 73.3304 11.4538H73.3309C73.4756 11.4536 73.5931 11.5674 73.5932 11.7079V11.7086C73.5932 11.8493 73.4758 11.9632 73.3309 11.9633C73.1861 11.9632 73.0687 11.8493 73.0686 11.7086ZM73.3309 11.9022C73.4409 11.9022 73.5301 11.8156 73.5302 11.7089V11.7087C73.5303 11.6018 73.4411 11.5151 73.3311 11.515H73.3309C73.2207 11.515 73.1315 11.6017 73.1315 11.7087C73.1315 11.8156 73.2208 11.9022 73.3309 11.9022ZM73.2955 11.8199H73.2417V11.5966H73.3391C73.3593 11.5966 73.3803 11.597 73.3978 11.6078C73.4166 11.6202 73.4274 11.6415 73.4274 11.6638C73.4274 11.689 73.4121 11.7126 73.3872 11.7217L73.4298 11.8199H73.37L73.3348 11.7316H73.2954L73.2955 11.8199ZM73.2955 11.6934H73.325C73.3361 11.6934 73.3482 11.6943 73.358 11.689C73.3669 11.6836 73.3714 11.6732 73.3714 11.6632C73.371 11.654 73.3662 11.6455 73.3584 11.6402C73.3492 11.6351 73.3339 11.6365 73.3239 11.6365H73.2954L73.2955 11.6934Z" fill="white"/>
<path d="M187.66 1H196.141C197.325 1 198.064 1.71805 197.787 2.5962L193.836 15.1785C193.558 16.0566 192.369 16.7746 191.185 16.7746H182.704C181.521 16.7746 180.781 16.0566 181.058 15.1785L185.009 2.5962C185.287 1.7135 186.47 1 187.654 1H187.66H187.66Z" fill="#D10429"/>
<path d="M195.4 1H205.157C206.341 1 205.804 1.71805 205.527 2.5962L201.576 15.1785C201.299 16.0566 201.385 16.7746 200.201 16.7746H190.444C189.255 16.7746 188.521 16.0566 188.805 15.1785L192.756 2.5962C193.033 1.7135 194.217 1 195.406 1H195.4H195.4Z" fill="#022E64"/>
<path d="M204.815 1H213.296C214.479 1 215.219 1.71805 214.942 2.5962L210.991 15.1785C210.713 16.0566 209.524 16.7746 208.34 16.7746H199.859C198.669 16.7746 197.936 16.0566 198.213 15.1785L202.164 2.5962C202.442 1.7135 203.625 1 204.808 1H204.815Z" fill="#076F74"/>
<path d="M203.39 12.862H204.192L204.42 12.2902H203.625L203.39 12.862ZM204.032 11.2885L203.754 11.9655C203.754 11.9655 204.056 11.8511 204.223 11.8145C204.389 11.7871 204.636 11.7642 204.636 11.7642L204.827 11.2931H204.025L204.032 11.2885ZM204.432 10.319L204.167 10.9684C204.167 10.9684 204.463 10.8678 204.629 10.8359C204.796 10.8038 205.042 10.7947 205.042 10.7947L205.233 10.3236H204.438L204.432 10.319ZM206.201 10.319L205.166 12.8573H205.443L205.227 13.3833H204.95L204.882 13.5434H203.896L203.964 13.3833H201.967L202.164 12.8986H202.367L203.415 10.319L203.625 9.79761H204.629L204.525 10.0583C204.525 10.0583 204.79 9.91652 205.049 9.86615C205.301 9.8159 206.756 9.79761 206.756 9.79761L206.54 10.3145H206.195L206.201 10.319Z" fill="#FEFEFE"/>
<path d="M206.612 9.79741H207.685L207.697 10.0947C207.691 10.145 207.746 10.1679 207.876 10.1679H208.092L207.894 10.6573H207.315C206.816 10.6847 206.625 10.5247 206.637 10.3463L206.618 9.80196L206.612 9.79741ZM206.744 12.1258H205.721L205.894 11.6914H207.065L207.231 11.2934H206.079L206.276 10.804H209.481L209.284 11.2934H208.205L208.039 11.6914H209.117L208.939 12.1258H207.774L207.564 12.3088H208.039L208.156 12.8576C208.168 12.9125 208.168 12.9491 208.193 12.972C208.217 12.9903 208.359 12.9994 208.439 12.9994H208.581L208.359 13.5346H207.995C207.94 13.5346 207.854 13.53 207.737 13.53C207.626 13.5208 207.552 13.4751 207.478 13.4477C207.41 13.4248 207.311 13.3653 207.287 13.2602L207.176 12.7113L206.646 13.251C206.479 13.4202 206.251 13.5529 205.863 13.5529H205.123L205.32 13.0772H205.604C205.684 13.0772 205.758 13.0544 205.814 13.0314C205.869 13.0131 205.918 12.9948 205.968 12.9354L206.744 12.1258ZM195.552 10.9354H198.258L198.061 11.4156H196.982L196.816 11.8226H197.925L197.722 12.3166H196.619L196.347 12.9798C196.317 13.053 196.612 13.0621 196.717 13.0621L197.272 13.0072L197.05 13.5561H195.805C195.706 13.5561 195.632 13.5469 195.521 13.5286C195.417 13.5103 195.367 13.4737 195.324 13.4234C195.281 13.3686 195.207 13.3274 195.256 13.2085L195.614 12.3304H194.997L195.201 11.8273H195.817L195.984 11.4202H195.367L195.565 10.9399L195.552 10.9354ZM197.422 10.0672H198.531L198.328 10.5657H196.812L196.645 10.671C196.571 10.7213 196.553 10.703 196.46 10.7396C196.374 10.7715 196.195 10.8356 195.961 10.8356H195.474L195.671 10.3554H195.819C195.942 10.3554 196.029 10.3462 196.072 10.3279C196.121 10.3051 196.177 10.2547 196.232 10.1724L196.509 9.79736H197.613L197.422 10.0718V10.0672ZM199.513 10.8905C199.513 10.8905 199.815 10.6847 200.333 10.6207C200.45 10.6024 201.189 10.6115 201.189 10.6115L201.3 10.3371H199.741L199.513 10.8951V10.8905ZM200.98 11.1009H199.433L199.34 11.3341H200.684C200.844 11.3204 200.875 11.3387 200.887 11.3296L200.986 11.1009H200.98ZM198.971 9.80196H199.914L199.778 10.1542C199.778 10.1542 200.074 9.9758 200.283 9.91173C200.493 9.85684 200.961 9.80196 200.961 9.80196L202.49 9.79741L201.966 11.0872C201.88 11.3067 201.775 11.4485 201.713 11.5171C201.658 11.5811 201.59 11.6406 201.454 11.6955C201.325 11.7458 201.208 11.7778 201.097 11.7824C200.998 11.7869 200.838 11.7915 200.629 11.7915H199.155L198.742 12.8114C198.706 12.9121 198.687 12.9623 198.712 12.9898C198.73 13.0126 198.786 13.0401 198.853 13.0401L199.501 12.9944L199.279 13.5523H198.551C198.317 13.5523 198.151 13.5478 198.034 13.5432C197.923 13.534 197.805 13.5432 197.725 13.4975C197.658 13.4517 197.553 13.3923 197.559 13.3328C197.565 13.2779 197.596 13.1864 197.645 13.0583L198.971 9.80196Z" fill="#FEFEFE"/>
<path d="M201.719 11.8544L201.632 12.1654C201.595 12.2614 201.565 12.3347 201.466 12.3987C201.361 12.4627 201.244 12.5313 200.961 12.5313L200.437 12.5496L200.43 12.8972C200.424 12.9932 200.461 12.984 200.48 13.0023C200.504 13.0206 200.523 13.0252 200.547 13.0344L200.714 13.0252L201.213 13.0069L201.004 13.5192H200.43C200.03 13.5192 199.728 13.51 199.635 13.4552C199.537 13.4094 199.524 13.3545 199.524 13.2539L199.561 11.8909H200.48L200.467 12.1699H200.689C200.763 12.1699 200.819 12.1653 200.85 12.1516C200.88 12.1379 200.899 12.115 200.911 12.083L201.004 11.8635H201.725L201.719 11.8544ZM188.652 5.02673C188.621 5.1365 188.03 7.15348 188.03 7.15348C187.9 7.56052 187.808 7.85328 187.5 8.04078C187.321 8.15054 187.111 8.20083 186.871 8.20083C186.482 8.20083 186.261 8.05907 186.224 7.78925L186.217 7.69777C186.217 7.69777 186.335 7.15348 186.335 7.14893C186.335 7.14893 186.951 5.3103 187.062 5.06787C187.068 5.05418 187.068 5.04503 187.068 5.04043C185.866 5.04962 185.65 5.04043 185.638 5.02673C185.632 5.04503 185.601 5.15935 185.601 5.15935L184.972 7.2313L184.917 7.40505L184.812 7.98138C184.812 8.15059 184.855 8.29235 184.948 8.40672C185.237 8.78176 186.057 8.83664 186.519 8.83664C187.117 8.83664 187.678 8.74057 188.054 8.57137C188.714 8.2832 188.886 7.83043 189.034 7.43254L189.108 7.2267C189.108 7.2267 189.743 5.31949 189.854 5.07251C189.86 5.05877 189.86 5.04962 189.866 5.04507C188.991 5.04962 188.738 5.04507 188.652 5.03133V5.02673ZM192.168 8.818C191.743 8.8134 191.589 8.8134 191.089 8.8317L191.071 8.80425C191.114 8.66245 191.163 8.52528 191.2 8.38348L191.262 8.19138C191.354 7.89411 191.441 7.54192 191.453 7.43674C191.465 7.37271 191.49 7.21265 191.243 7.21265C191.139 7.21265 191.034 7.2492 190.923 7.28579C190.861 7.44589 190.744 7.89411 190.683 8.09535C190.559 8.52528 190.553 8.57557 190.498 8.786L190.461 8.8134C190.023 8.80885 189.869 8.80885 189.364 8.82714L189.339 8.79511C189.425 8.53898 189.505 8.28285 189.585 8.02673C189.795 7.33608 189.851 7.07085 189.906 6.71865L189.949 6.70036C190.442 6.65007 190.559 6.63632 191.096 6.55859L191.139 6.59518L191.059 6.81472C191.151 6.77358 191.237 6.73239 191.33 6.70036C191.582 6.60888 191.86 6.58144 192.014 6.58144C192.248 6.58144 192.507 6.63177 192.612 6.83301C192.711 7.01137 192.649 7.2309 192.513 7.66543L192.445 7.88496C192.31 8.36978 192.285 8.45665 192.211 8.78596L192.162 8.8134L192.168 8.818ZM193.899 8.81918C193.64 8.81918 193.474 8.81463 193.313 8.81918C193.153 8.81918 192.999 8.82837 192.759 8.83292L192.746 8.81918L192.734 8.80088C192.802 8.61794 192.833 8.55391 192.87 8.48987C192.9 8.42584 192.931 8.36181 192.993 8.17431C193.067 7.93188 193.116 7.76268 193.147 7.61172C193.184 7.46992 193.202 7.34649 193.227 7.20469L193.246 7.19554L193.264 7.18184C193.523 7.1544 193.683 7.1361 193.85 7.11781C194.016 7.09951 194.189 7.07667 194.454 7.04008L194.466 7.05837L194.472 7.07667L194.324 7.52944C194.275 7.6804 194.226 7.83131 194.183 7.98226C194.09 8.30242 194.047 8.42133 194.028 8.50821C194.004 8.59054 193.998 8.63172 193.961 8.79638L193.936 8.81008L193.911 8.82382L193.899 8.81918ZM196.635 7.69545C196.617 7.77778 196.518 8.08424 196.389 8.2123C196.296 8.30833 196.192 8.36781 196.068 8.36781C196.031 8.36781 195.822 8.36781 195.816 8.13453C195.816 8.02021 195.846 7.90125 195.883 7.77323C195.994 7.40274 196.13 7.09632 196.469 7.09632C196.734 7.09632 196.752 7.325 196.635 7.69545ZM197.751 7.73204C197.899 7.24723 197.782 7.01854 197.64 6.88133C197.418 6.67094 197.024 6.60236 196.617 6.60236C196.37 6.60236 195.791 6.62065 195.335 6.93167C195.008 7.15576 194.854 7.46221 194.768 7.75493C194.675 8.0522 194.571 8.58734 195.236 8.78859C195.44 8.85262 195.735 8.87087 195.927 8.87087C196.414 8.87087 196.913 8.77029 197.289 8.47757C197.578 8.23974 197.708 7.88299 197.757 7.73204H197.751ZM208.141 8.87349C207.623 8.86894 207.475 8.86894 207 8.88724L206.97 8.8598C207.099 8.49845 207.228 8.13256 207.345 7.76666C207.493 7.291 207.53 7.08975 207.58 6.81078L207.617 6.78793C208.128 6.73305 208.27 6.71935 208.806 6.64617L208.819 6.67817C208.72 6.98003 208.628 7.27734 208.529 7.57461C208.332 8.20123 208.264 8.52139 208.19 8.85069L208.141 8.87813V8.87349Z" fill="#FEFEFE"/>
<path d="M207.396 7.75625C207.372 7.83399 207.273 8.145 207.144 8.27306C207.057 8.36453 206.848 8.42401 206.731 8.42401C206.694 8.42401 206.49 8.42401 206.478 8.19533C206.478 8.08096 206.509 7.96205 206.546 7.83399C206.657 7.47269 206.792 7.16623 207.131 7.16623C207.396 7.16623 207.514 7.39032 207.396 7.76081V7.75625ZM208.414 7.79284C208.561 7.30803 207.957 7.7517 207.865 7.5916C207.717 7.34003 207.809 6.83692 207.218 6.66772C206.99 6.59909 206.453 6.68601 205.997 6.99702C205.677 7.21656 205.516 7.52297 205.43 7.81569C205.338 8.10841 205.233 8.64815 205.892 8.83565C206.102 8.90423 206.293 8.92252 206.484 8.91338C207.15 8.88593 207.655 8.1404 208.031 7.84768C208.321 7.61445 208.37 7.93461 208.414 7.79284ZM200.674 8.81757C200.249 8.81297 200.101 8.81297 199.601 8.83127L199.583 8.80383C199.626 8.66202 199.675 8.52485 199.718 8.38305L199.774 8.19095C199.866 7.89368 199.959 7.54149 199.965 7.43631C199.977 7.37228 200.002 7.21223 199.762 7.21223C199.657 7.21223 199.546 7.24877 199.441 7.28536C199.385 7.44546 199.262 7.89368 199.201 8.09493C199.083 8.52485 199.071 8.57514 199.016 8.78558L198.979 8.81297C198.541 8.80842 198.387 8.80842 197.882 8.82672L197.857 8.79468C197.943 8.53855 198.023 8.28243 198.103 8.0263C198.313 7.33565 198.362 7.07042 198.424 6.71822L198.461 6.69993C198.954 6.64964 199.077 6.6359 199.607 6.55817L199.651 6.59475L199.577 6.81429C199.663 6.77315 199.755 6.73197 199.842 6.69993C200.094 6.60845 200.372 6.58101 200.526 6.58101C200.76 6.58101 201.013 6.63134 201.124 6.83259C201.222 7.01094 201.155 7.23048 201.019 7.665L200.951 7.88454C200.809 8.36935 200.791 8.45623 200.717 8.78553L200.668 8.81297L200.674 8.81757ZM204.367 5.03086L204.009 5.03545C203.085 5.0446 202.715 5.04001 202.567 5.02631C202.555 5.07664 202.53 5.16352 202.53 5.16352C202.53 5.16352 202.197 6.29779 202.197 6.30234C202.197 6.30234 201.408 8.71726 201.371 8.83158C202.179 8.82243 202.505 8.82243 202.647 8.83617C202.678 8.72181 202.863 8.0495 202.869 8.0495C202.869 8.0495 203.029 7.55554 203.035 7.53724C203.035 7.53724 203.085 7.48691 203.134 7.46406H203.208C203.905 7.46406 204.687 7.46406 205.304 7.13021C205.723 6.90152 206.006 6.55847 206.136 6.14684C206.167 6.04622 206.191 5.9273 206.191 5.80383C206.191 5.64373 206.148 5.48827 206.025 5.36476C205.711 5.04001 205.088 5.03545 204.367 5.03086ZM204.829 6.21547C204.755 6.467 204.533 6.68198 204.25 6.7826C204.015 6.86948 203.732 6.87863 203.436 6.87863H203.245L203.257 6.82375C203.257 6.82375 203.609 5.68947 203.609 5.69407L203.621 5.63459L203.627 5.58885L203.769 5.59804C203.769 5.59804 204.496 5.64373 204.509 5.64373C204.792 5.72606 204.915 5.93645 204.829 6.21547ZM212.406 6.59475L212.363 6.55817C211.839 6.6359 211.741 6.64964 211.26 6.69997L211.223 6.72737C211.223 6.73197 211.217 6.73656 211.217 6.74567V6.74111C210.859 7.35854 210.865 7.22592 210.576 7.71074C210.576 7.68785 210.576 7.67415 210.569 7.65126L210.495 6.59931L210.452 6.56272C209.897 6.64049 209.885 6.65419 209.38 6.70452L209.343 6.73197C209.336 6.74567 209.336 6.75941 209.336 6.77311L209.343 6.7777C209.404 7.02009 209.392 6.9652 209.454 7.34484C209.485 7.53234 209.521 7.71988 209.552 7.90283C209.601 8.21384 209.632 8.36475 209.694 8.83586C209.349 9.2566 209.269 9.4167 208.936 9.78711L208.954 9.8237C209.454 9.81004 209.564 9.81004 209.934 9.81004L210.015 9.74141C210.292 9.29783 212.412 6.59935 212.412 6.59935L212.406 6.59475ZM194.375 6.89771C194.659 6.75135 194.696 6.55011 194.455 6.44494C194.215 6.33972 193.79 6.37176 193.506 6.51812C193.222 6.65992 193.192 6.86112 193.432 6.97089C193.666 7.07156 194.092 7.04407 194.375 6.89771Z" fill="#FEFEFE"/>
<path d="M209.932 9.80212L209.519 10.3282C209.39 10.5065 209.143 10.6437 208.761 10.6437L208.102 10.6346L208.293 10.1589H208.422C208.49 10.1589 208.539 10.1544 208.576 10.1406C208.613 10.1315 208.632 10.1132 208.663 10.0857L208.909 9.79761H209.939L209.932 9.80212Z" fill="#FEFEFE"/>
<path d="M177.707 9.13419C177.707 13.6261 173.327 17.2677 167.923 17.2677C162.52 17.2677 158.139 13.6264 158.139 9.13419C158.139 4.64188 162.52 1.00024 167.923 1.00024C173.327 1.00024 177.707 4.64183 177.707 9.13419Z" fill="#D9222A"/>
<path d="M160.365 14.2987C160.094 14.0256 159.845 13.7378 159.62 13.4374H163.087C163.296 13.16 163.484 12.8722 163.651 12.5758H159.056C158.898 12.2957 158.76 12.0083 158.642 11.7149H164.065C164.391 10.9037 164.568 10.0361 164.568 9.13386C164.568 8.54272 164.492 7.96649 164.348 7.41142H158.359C158.435 7.1202 158.53 6.83265 158.643 6.55013H164.064C163.946 6.25687 163.808 5.96936 163.65 5.68902H159.057C159.224 5.39281 159.413 5.10522 159.621 4.82768H163.086C162.86 4.52781 162.612 4.24035 162.341 3.96716H160.366C160.67 3.66072 161 3.37299 161.354 3.10624C159.617 1.79745 157.312 1 154.784 1C149.38 1.00005 145 4.64163 145 9.13395C145 13.6259 149.381 17.2674 154.784 17.2674C157.313 17.2674 159.618 16.4701 161.354 15.1616C161.709 14.8944 162.039 14.6061 162.343 14.299H160.366" fill="#0097D0"/>
<path d="M176.403 13.6666C176.403 13.5216 176.544 13.404 176.719 13.404C176.893 13.4041 177.035 13.5216 177.034 13.6666C177.034 13.8118 176.893 13.9294 176.719 13.9294C176.544 13.9295 176.403 13.8118 176.403 13.6666ZM176.719 13.8664C176.851 13.8664 176.959 13.7772 176.959 13.6671V13.6666C176.959 13.5567 176.852 13.4674 176.719 13.4674H176.719C176.586 13.4672 176.479 13.5563 176.478 13.6664V13.6666C176.478 13.7769 176.586 13.8663 176.718 13.8664H176.719ZM176.676 13.782H176.611V13.5513H176.728C176.753 13.5513 176.778 13.5515 176.799 13.563C176.822 13.5758 176.835 13.5981 176.835 13.6206C176.835 13.6469 176.816 13.6709 176.787 13.6801L176.837 13.7819H176.766L176.724 13.6909H176.676V13.782ZM176.676 13.6516H176.712C176.725 13.6516 176.739 13.6523 176.751 13.6469C176.762 13.6408 176.768 13.6308 176.768 13.6201C176.767 13.6107 176.761 13.6021 176.752 13.5969C176.74 13.5912 176.722 13.5923 176.71 13.5923H176.676V13.6516ZM161.214 11.3314C160.796 11.4235 160.391 11.4684 159.964 11.4677C158.6 11.4667 157.89 10.9504 157.89 9.96334C157.89 8.80979 158.794 7.96132 160.021 7.96132C161.025 7.96132 161.666 8.4371 161.666 9.1823C161.666 9.42961 161.623 9.67035 161.517 10.0113H159.092C159.005 10.4931 159.429 10.7049 160.15 10.7049C160.582 10.7049 160.973 10.6402 161.405 10.4958L161.214 11.3314ZM160.562 9.33078C160.562 9.25797 160.697 8.74023 159.995 8.7289C159.607 8.7289 159.329 8.943 159.217 9.33078H160.562ZM162.035 9.10468C162.035 9.53079 162.324 9.82514 162.98 10.0443C163.482 10.2151 163.561 10.2644 163.561 10.4168C163.561 10.6281 163.339 10.7252 162.847 10.7224C162.477 10.7202 162.14 10.683 161.742 10.5912L161.566 11.3685C161.92 11.4367 162.416 11.4591 162.856 11.4677C164.165 11.4677 164.77 11.1112 164.77 10.3409C164.77 9.87793 164.518 9.60533 163.896 9.40233C163.376 9.22974 163.315 9.19217 163.315 9.03607C163.315 8.85256 163.521 8.75967 163.923 8.75967C164.166 8.75967 164.499 8.77839 164.815 8.80988L164.993 8.02861C164.671 7.99123 164.182 7.96141 163.899 7.96141C162.512 7.96146 162.031 8.48069 162.035 9.10468ZM157.225 11.412H156.208L156.232 11.0576C155.922 11.3372 155.509 11.4673 154.948 11.4673C154.284 11.4673 153.829 11.0901 153.829 10.5477C153.829 9.72323 154.62 9.24764 155.979 9.24764C156.119 9.24764 156.296 9.25629 156.479 9.2731C156.516 9.16281 156.526 9.11546 156.526 9.05524C156.526 8.82963 156.313 8.74653 155.741 8.74653C155.177 8.74843 154.797 8.81772 154.444 8.89665L154.617 8.13994C155.228 8.01098 155.628 7.96137 156.08 7.96137C157.132 7.96137 157.688 8.3042 157.688 8.94898C157.697 9.12094 157.625 9.46613 157.589 9.61715C157.547 9.83701 157.256 11.1112 157.225 11.412ZM156.332 9.90801C156.203 9.89705 156.147 9.89388 156.059 9.89388C155.365 9.89388 155.013 10.0655 155.013 10.4044C155.013 10.617 155.185 10.7503 155.453 10.7503C155.951 10.7503 156.311 10.4036 156.332 9.90801ZM166.914 11.3585C166.58 11.4346 166.32 11.4676 166.038 11.4676C165.415 11.4676 165.075 11.2029 165.075 10.7313C165.055 10.6018 165.207 10.0036 165.242 9.83701C165.276 9.66976 165.816 7.23193 165.816 7.23193H167.027L166.844 8.03849H167.465L167.296 8.86185H166.673C166.673 8.86185 166.33 10.2905 166.33 10.3995C166.33 10.5727 166.456 10.6481 166.746 10.6481C166.885 10.6481 166.992 10.6374 167.075 10.6167L166.914 11.3585ZM172.324 7.96127C171.436 7.96127 170.743 8.26486 170.34 8.772L170.69 8.02C170.046 7.82348 169.63 8.10383 169.255 8.50257C169.255 8.50257 169.192 8.56882 169.129 8.62944V8.03812H167.992C167.838 9.08161 167.566 10.1396 167.353 11.1849L167.302 11.4124H168.525C168.641 10.8819 168.736 10.4512 168.831 10.1079C169.091 9.16603 169.528 8.87812 170.185 9.00535C170.033 9.27627 169.95 9.58951 169.95 9.93669C169.95 10.7786 170.5 11.4677 171.866 11.4677C173.244 11.4677 174.243 10.8556 174.243 9.45997C174.243 8.61812 173.577 7.96127 172.324 7.96127ZM171.968 10.649C171.536 10.6547 171.274 10.3534 171.274 9.90266C171.274 9.36839 171.656 8.76479 172.27 8.76479C172.766 8.76479 172.935 9.09122 172.935 9.43899C172.935 10.1993 172.561 10.649 171.968 10.649ZM153.26 11.4124H152.042L152.766 8.24262L151.099 11.4124H149.989L149.786 8.26092L149.06 11.4124H147.955L148.896 7.28916H150.799L150.958 9.58766L152.164 7.28916H154.22L153.26 11.4124Z" fill="black"/>
<path d="M174.336 10.8954C174.336 10.7504 174.477 10.6329 174.651 10.6328C174.826 10.6328 174.967 10.7506 174.967 10.8954C174.971 11.0404 174.832 11.1602 174.657 11.1629C174.483 11.1657 174.339 11.0502 174.336 10.9052C174.335 10.9019 174.335 10.8986 174.336 10.8954ZM174.651 11.0953C174.784 11.0952 174.892 11.0057 174.892 10.8954C174.892 10.7851 174.784 10.6959 174.651 10.6959C174.519 10.6959 174.411 10.7852 174.411 10.8954C174.411 11.0057 174.519 11.0952 174.651 11.0953ZM174.609 11.0108H174.544V10.7804H174.661C174.686 10.7804 174.711 10.7804 174.732 10.7917C174.755 10.8044 174.767 10.8266 174.767 10.8493C174.767 10.8755 174.749 10.8999 174.719 10.909L174.77 11.0107H174.699L174.656 10.9197H174.609L174.609 11.0108ZM174.609 10.8799H174.645C174.658 10.8799 174.672 10.8807 174.684 10.8755C174.694 10.8694 174.701 10.8595 174.7 10.8489C174.7 10.8395 174.694 10.8309 174.685 10.8257C174.673 10.8198 174.655 10.8213 174.643 10.8213H174.609V10.8799ZM161.52 11.0772C161.102 11.1693 160.697 11.2144 160.27 11.2137C158.906 11.2125 158.196 10.6962 158.196 9.70896C158.196 8.55577 159.1 7.70713 160.327 7.70713C161.331 7.70713 161.972 8.18272 161.972 8.92792C161.972 9.17564 161.929 9.41597 161.823 9.75717H159.398C159.311 10.2388 159.735 10.4508 160.456 10.4508C160.888 10.4508 161.278 10.3862 161.711 10.2416L161.52 11.0772ZM160.868 9.07668C160.868 9.004 161.002 8.48613 160.301 8.47498C159.913 8.47498 159.636 8.68926 159.523 9.07668H160.868ZM162.342 8.8503C162.342 9.2766 162.63 9.57076 163.286 9.79034C163.788 9.96108 163.866 10.0104 163.866 10.1625C163.866 10.3739 163.645 10.471 163.153 10.4683C162.783 10.4662 162.446 10.4289 162.048 10.3371L161.872 11.114C162.226 11.1827 162.722 11.2052 163.161 11.2137C164.471 11.2137 165.076 10.857 165.076 10.0867C165.076 9.62378 164.824 9.35104 164.201 9.14823C163.681 8.97563 163.621 8.93807 163.621 8.78197C163.621 8.59846 163.827 8.50557 164.228 8.50557C164.472 8.50557 164.805 8.52446 165.122 8.556L165.299 7.77455C164.976 7.73717 164.488 7.70735 164.205 7.70735C162.817 7.70731 162.337 8.22631 162.342 8.8503ZM157.531 11.158H156.514L156.538 10.8037C156.228 11.0827 155.815 11.213 155.254 11.213C154.59 11.213 154.135 10.8357 154.135 10.2938C154.135 9.46885 154.925 8.99349 156.285 8.99349C156.424 8.99349 156.602 9.00219 156.785 9.019C156.822 8.90875 156.832 8.86154 156.832 8.80114C156.832 8.57535 156.619 8.49243 156.047 8.49243C155.483 8.49433 155.103 8.56379 154.75 8.64255L154.923 7.88602C155.534 7.75688 155.933 7.70722 156.386 7.70722C157.438 7.70722 157.994 8.05009 157.994 8.69465C158.003 8.86684 157.931 9.2118 157.895 9.36319C157.853 9.58286 157.561 10.857 157.531 11.158ZM156.638 9.65377C156.509 9.64272 156.453 9.63963 156.365 9.63963C155.671 9.63963 155.319 9.81128 155.319 10.1502C155.319 10.3629 155.491 10.4961 155.758 10.4961C156.257 10.496 156.617 10.1493 156.638 9.65377ZM167.219 11.1046C166.886 11.1805 166.625 11.2137 166.344 11.2137C165.721 11.2137 165.381 10.9488 165.381 10.4772C165.361 10.3479 165.514 9.74952 165.548 9.58286C165.582 9.41557 166.122 6.97778 166.122 6.97778H167.333L167.15 7.78434H167.771L167.602 8.6077H166.979C166.979 8.6077 166.636 10.0364 166.636 10.1453C166.636 10.3186 166.763 10.3935 167.052 10.3935C167.191 10.3935 167.298 10.3832 167.381 10.3622L167.219 11.1046ZM173.241 9.18484C173.241 9.94495 172.866 10.3951 172.273 10.3951C171.842 10.4002 171.58 10.0994 171.58 9.64856C171.58 9.11424 171.962 8.51064 172.576 8.51064C173.071 8.51064 173.241 8.83748 173.241 9.18484ZM174.549 9.206C174.549 8.36415 173.883 7.70713 172.63 7.70713C171.188 7.70713 170.256 8.50575 170.256 9.68255C170.256 10.5244 170.806 11.2137 172.172 11.2137C173.55 11.2137 174.549 10.6014 174.549 9.206ZM168.298 7.78397C168.144 8.82746 167.872 9.88532 167.659 10.9309L167.608 11.1584H168.831C169.271 9.13939 169.419 8.56416 170.343 8.76675L170.787 7.81125C170.143 7.61473 169.728 7.89526 169.353 8.29419C169.387 8.11466 169.45 7.94152 169.435 7.78406L168.298 7.78397ZM153.566 11.1584H152.348L153.072 7.98842L151.405 11.1584H150.295L150.092 8.00668L149.366 11.1584H148.261L149.202 7.03497H151.105L151.206 9.58757L152.546 7.03497H154.526L153.566 11.1584Z" fill="white"/>
<path d="M261 2C264.866 2 268 5.12957 268 8.99562V9C268 12.866 264.866 16 261 16C257.134 16 254 12.866 254 9V8.99562C254 5.12957 257.134 2 261 2Z" fill="#F47216"/>
<path d="M250.251 1C251.314 1 252.206 1.2745 253.291 1.93652V5.43547C252.263 4.2263 251.371 3.72021 250.192 3.72021C247.874 3.72021 246.052 6.02921 246.052 8.95656C246.052 12.0435 247.818 14.2151 250.307 14.2151C251.427 14.2151 252.303 13.7353 253.291 12.5456V16.0463C252.167 16.6832 251.256 16.9343 250.192 16.9343C246.429 16.9343 243.505 13.4594 243.505 8.9784C243.505 4.54493 246.507 1 250.251 1ZM238.567 1.09626C239.956 1.09626 241.227 1.66848 242.289 2.78692L240.996 4.82419C240.352 3.95595 239.744 3.5898 239.003 3.5898C237.938 3.5898 237.162 4.31933 237.162 5.27953C237.162 6.10287 237.598 6.53868 239.081 7.19886C241.892 8.43571 242.725 9.53262 242.725 11.9546C242.725 14.9061 240.923 16.9608 238.355 16.9608C236.475 16.9608 235.108 16.0696 233.969 14.0588L235.565 12.2088C236.134 13.5326 237.084 14.2423 238.263 14.2423C239.365 14.2423 240.181 13.3273 240.181 12.092C240.181 11.4516 239.934 10.9028 239.441 10.5145C239.192 10.3307 238.7 10.0565 237.732 9.64626C235.411 8.64085 234.615 7.56608 234.615 5.46561C234.615 2.97023 236.325 1.09626 238.567 1.09626ZM266.807 1.36215H269.506L272.885 11.6026L276.308 1.36215H278.987L273.514 17H272.184L266.807 1.36215ZM230.567 1.38553H233.038V16.6317H230.567V1.38553ZM280.104 1.38553H287.113V3.96887H282.574V7.35294H286.946V9.93506H282.574V14.0505H287.113V16.6317H280.104V1.38553ZM294.012 10.2089C295.873 9.75298 296.897 8.22118 296.897 5.88696C296.897 3.0325 295.264 1.38568 292.413 1.38568H288.749V16.632H291.218V10.507H291.54L294.961 16.6317H298L294.012 10.2089ZM291.94 8.40418H291.218V3.78695H291.979C293.518 3.78695 294.354 4.56338 294.354 6.04705C294.355 7.57977 293.518 8.40418 291.94 8.40418ZM222.627 1.38553H219V16.6317H222.609C224.527 16.6317 225.913 16.0869 227.129 14.8717C228.575 13.4325 229.429 11.2629 229.429 9.0193C229.429 4.51986 226.635 1.38553 222.627 1.38553ZM225.515 12.8389C224.738 13.6822 223.729 14.0505 222.133 14.0505H221.469V3.96887H222.133C223.729 3.96887 224.698 4.31303 225.514 5.20188C226.369 6.11779 226.883 7.53686 226.883 8.99746C226.883 10.4604 226.369 11.923 225.515 12.8389Z" fill="black"/>
<path d="M103 9.11247C103 3.72327 97.8616 -0.00162562 92.2315 6.43831e-07H87.3865C81.6893 -0.00178824 77 3.72441 77 9.11247C77 14.0417 81.6894 18.0916 87.3865 18.0677H92.2315C97.8611 18.0914 103 14.0404 103 9.11247Z" fill="#0079BE"/>
<path d="M87.4168 0.763306C82.2109 0.764715 77.9926 4.46619 77.9907 9.03446C77.992 13.602 82.2105 17.3029 87.4168 17.3045C92.6238 17.3032 96.8434 13.602 96.844 9.03446C96.8434 4.46608 92.6239 0.764932 87.4168 0.763306Z" fill="white"/>
<path d="M81.459 9.01226C81.4639 6.77995 83.0533 4.87636 85.2945 4.11993V13.9035C83.0533 13.1475 81.4639 11.2449 81.459 9.01232V9.01226ZM89.571 13.9059V4.1202C91.8131 4.87484 93.405 6.77952 93.409 9.01286C93.4049 11.2469 91.8131 13.1502 89.571 13.9062V13.9059Z" fill="#0079BE"/>
<path d="M304.795 1H336.205C337.196 1 338 1.56703 338 2.26648V15.5645C338 16.264 337.196 16.831 336.205 16.831H304.795C303.804 16.831 303 16.264 303 15.5645V2.26648C303 1.56703 303.804 1 304.795 1Z" fill="#2557D6"/>
<path d="M303 8.50176H304.681L305.06 7.93743H305.909L306.287 8.50176H309.595V8.07034L309.89 8.50364H311.607L311.903 8.06392V8.50179H320.123L320.119 7.57542H320.278C320.39 7.57783 320.422 7.58416 320.422 7.69766V8.50179H324.674V8.28615C325.017 8.39954 325.55 8.50179 326.252 8.50179H328.041L328.424 7.93746H329.272L329.647 8.50179H333.093V7.96575L333.615 8.50179H336.377V4.95813H333.644V5.37662L333.261 4.95813H330.456V5.37662L330.105 4.95813H326.316C325.682 4.95813 325.124 5.01277 324.674 5.16503V4.95813H322.059V5.16503C321.773 5.00808 321.382 4.95813 320.948 4.95813H311.396L310.755 5.87336L310.097 4.95813H307.088V5.37662L306.758 4.95813H304.192L303 6.64292V8.50171H303L303 8.50176ZM313.612 7.99065H312.604L312.6 6.00075L311.173 7.99062H310.309L308.879 5.99898V7.99062H306.877L306.499 7.42391H304.451L304.069 7.99062H303L304.762 5.44989H306.224L307.897 7.85545V5.44989H309.503L310.791 7.17348L311.974 5.44989H313.612L313.612 7.99065ZM306.163 6.8966L305.49 5.88372L304.82 6.8966H306.163ZM317.626 7.99059H314.339V5.44986H317.626V5.97894H315.323V6.43692H317.571V6.95772H315.323V7.46513H317.626L317.626 7.99059ZM322.258 6.13415C322.258 6.53923 321.82 6.74853 321.565 6.81136C321.78 6.86192 321.964 6.9513 322.052 7.02532C322.191 7.1517 322.215 7.26456 322.215 7.49148V7.99059H321.222L321.219 7.67018C321.219 7.51731 321.242 7.29745 321.063 7.17521C320.92 7.08583 320.7 7.06645 320.346 7.06645H319.29V7.99062H318.306V5.44986H320.569C321.072 5.44986 321.442 5.45805 321.76 5.57155C322.072 5.68506 322.258 5.85074 322.258 6.13415ZM321.015 6.5114C320.879 6.56208 320.72 6.56376 320.528 6.56376H319.333V5.99942H320.544C320.716 5.99942 320.895 6.00416 321.011 6.04524C321.138 6.08226 321.217 6.16103 321.217 6.26984C321.217 6.38092 321.142 6.47027 321.015 6.5114ZM323.836 7.99059H322.833V5.44986H323.836V7.99059ZM335.491 7.99059H334.097L332.232 6.08362V7.99059H330.228L329.845 7.42388H327.801L327.43 7.99059H326.278C325.8 7.99059 325.194 7.92531 324.851 7.70958C324.506 7.49385 324.326 7.20165 324.326 6.73962C324.326 6.36281 324.433 6.01834 324.856 5.74612C325.174 5.54335 325.672 5.44986 326.35 5.44986H327.303V5.99427H326.37C326.011 5.99427 325.808 6.02725 325.613 6.14477C325.445 6.25177 325.33 6.45398 325.33 6.7203C325.33 6.99249 325.418 7.18878 325.601 7.31698C325.752 7.41752 326.028 7.44801 326.287 7.44801H326.728L328.115 5.44995H329.59L331.255 7.85311V5.44998H332.754L334.483 7.21947V5.44998H335.491V7.99059ZM329.51 6.89663L328.829 5.88375L328.152 6.89663H329.51ZM337.998 12.0477C337.759 12.2634 337.294 12.3727 336.663 12.3727H334.763V11.8278H336.655C336.843 11.8278 336.974 11.8125 337.054 11.7649C337.128 11.7222 337.171 11.6621 337.17 11.5992C337.17 11.5251 337.122 11.4663 337.05 11.4311C336.978 11.3923 336.874 11.3747 336.703 11.3747C335.779 11.3553 334.627 11.3923 334.627 10.5881C334.627 10.2195 335.006 9.8315 336.038 9.8315H337.998V9.32591H336.177C335.628 9.32591 335.228 9.40719 334.946 9.53342V9.32588H332.252C331.821 9.32588 331.316 9.3918 331.077 9.53342V9.32588H326.267V9.53342C325.884 9.36299 325.238 9.32588 324.94 9.32588H321.768V9.53342C321.465 9.35241 320.791 9.32588 320.381 9.32588H316.83L316.018 9.86864L315.257 9.32588H309.952V12.8719H315.157L315.994 12.3205L316.782 12.8719L319.99 12.8736V12.0395H320.306C320.731 12.0435 321.233 12.0329 321.676 11.9147V12.8717H324.322V11.9475H324.45C324.613 11.9475 324.629 11.9517 324.629 12.0521V12.8716H332.666C333.177 12.8716 333.71 12.791 334.005 12.6447V12.8716H336.555C337.085 12.8716 337.604 12.8257 337.998 12.7082L337.998 12.0476L337.998 12.0477ZM322.061 10.6837C322.061 11.3897 321.208 11.5354 320.348 11.5354H319.12V12.3878H317.208L315.996 11.5465L314.737 12.3878H310.839V9.84645H314.797L316.007 10.6795L317.259 9.84645H320.403C321.184 9.84645 322.061 9.97989 322.061 10.6837ZM314.238 11.8533H311.819V11.3477H313.979V10.8291H311.819V10.3671H314.286L315.362 11.1077L314.238 11.8533ZM318.136 12.1443L316.626 11.1091L318.136 10.1068V12.1443ZM320.37 11.0143H319.099V10.3671H320.382C320.737 10.3671 320.984 10.4565 320.984 10.6787C320.984 10.8985 320.748 11.0143 320.37 11.0143ZM327.032 9.84645H330.316V10.372H328.012V10.8341H330.26V11.3526H328.012V11.8582L330.316 11.8605V12.3878H327.032L327.032 9.84645ZM325.769 11.2068C325.988 11.2567 326.167 11.3461 326.251 11.4201C326.39 11.5442 326.41 11.66 326.414 11.884V12.3878H325.426V12.0699C325.426 11.917 325.45 11.6906 325.267 11.5724C325.124 11.4814 324.904 11.4596 324.546 11.4596H323.494V12.3878H322.505V9.84648H324.777C325.275 9.84648 325.638 9.86008 325.961 9.96641C326.271 10.0822 326.467 10.2408 326.467 10.5308C326.467 10.9364 326.028 11.1434 325.769 11.2068ZM325.213 10.8855C325.082 10.9337 324.919 10.9379 324.727 10.9379H323.532V10.3671H324.744C324.919 10.3671 325.094 10.3695 325.213 10.413C325.341 10.4542 325.417 10.533 325.417 10.6416C325.417 10.7503 325.341 10.8379 325.213 10.8855ZM334.096 11.0474C334.287 11.1697 334.39 11.3243 334.39 11.5858C334.39 12.1325 333.837 12.3877 332.844 12.3877H330.928V11.8427H332.837C333.023 11.8427 333.156 11.8276 333.238 11.7798C333.306 11.7406 333.355 11.6834 333.355 11.6141C333.355 11.54 333.302 11.4813 333.235 11.446C333.159 11.4073 333.056 11.3897 332.884 11.3897C331.964 11.3703 330.812 11.4073 330.812 10.6031C330.812 10.2345 331.187 9.84648 332.218 9.84648H334.191V10.3874H332.386C332.207 10.3874 332.091 10.3916 331.992 10.4333C331.884 10.4744 331.844 10.5355 331.844 10.6161C331.844 10.7119 331.936 10.7772 332.059 10.8054C332.163 10.8277 332.275 10.8342 332.442 10.8342L332.972 10.8431C333.506 10.851 333.873 10.9081 334.096 11.0474ZM338 10.3671H336.207C336.028 10.3671 335.909 10.3712 335.809 10.413C335.705 10.4541 335.665 10.5152 335.665 10.5959C335.665 10.6917 335.752 10.7569 335.88 10.7851C335.984 10.8074 336.095 10.814 336.259 10.814L336.792 10.8227C337.33 10.831 337.69 10.8881 337.909 11.0273C337.949 11.0467 337.973 11.0684 338 11.0902V10.3671H338Z" fill="white"/>
<defs>
<linearGradient id="paint0_linear_1_102" x1="130.065" y1="8.59547" x2="139.938" y2="8.59547" gradientUnits="userSpaceOnUse">
<stop stop-color="#007B40"/>
<stop offset="1" stop-color="#55B330"/>
</linearGradient>
<linearGradient id="paint1_linear_1_102" x1="107.79" y1="9.01784" x2="117.704" y2="9.01784" gradientUnits="userSpaceOnUse">
<stop stop-color="#1D2970"/>
<stop offset="1" stop-color="#006DBA"/>
</linearGradient>
<linearGradient id="paint2_linear_1_102" x1="119.053" y1="8.72782" x2="128.932" y2="8.72782" gradientUnits="userSpaceOnUse">
<stop stop-color="#6E2B2F"/>
<stop offset="1" stop-color="#E30138"/>
</linearGradient>
</defs>
</svg>
