<svg width="15" height="20" viewBox="0 0 15 20" fill="none" xmlns="http://www.w3.org/2000/svg">
<path d="M8.02401 11.1689V3.88905C8.02401 3.07867 7.70693 2.30148 7.14252 1.72845C6.57811 1.15542 5.81261 0.833496 5.01442 0.833496C4.21623 0.833496 3.45073 1.15542 2.88632 1.72845C2.32191 2.30148 2.00483 3.07867 2.00483 3.88905V11.1689C1.52936 11.5968 1.14921 12.1226 0.889725 12.7114C0.630242 13.3002 0.497393 13.9384 0.500039 14.5835C0.500039 15.7991 0.97566 16.9649 1.82227 17.8244C2.66888 18.6839 3.81713 19.1668 5.01442 19.1668C6.21171 19.1668 7.35996 18.6839 8.20657 17.8244C9.05318 16.9649 9.5288 15.7991 9.5288 14.5835C9.53145 13.9384 9.3986 13.3002 9.13911 12.7114C8.87963 12.1226 8.49948 11.5968 8.02401 11.1689ZM5.01442 2.05572C5.49273 2.05773 5.95088 2.25153 6.28909 2.59491C6.62731 2.93829 6.81819 3.40344 6.82017 3.88905V4.50016H3.20867V3.88905C3.21065 3.40344 3.40153 2.93829 3.73975 2.59491C4.07796 2.25153 4.53611 2.05773 5.01442 2.05572ZM9.38585 6.76891C9.32897 6.71205 9.28381 6.64427 9.25298 6.56952C9.22215 6.49477 9.20628 6.41454 9.20628 6.3335C9.20628 6.25246 9.22215 6.17223 9.25298 6.09747C9.28381 6.02272 9.32897 5.95494 9.38585 5.89808C9.58149 5.69947 9.81374 5.54193 10.0694 5.43445C10.325 5.32698 10.5989 5.27167 10.8756 5.27169C11.4337 5.27495 11.9684 5.49977 12.3653 5.89808C12.4486 5.9833 12.5476 6.05095 12.6567 6.09711C12.7659 6.14328 12.8829 6.16704 13.0011 6.16704C13.1193 6.16704 13.2364 6.14328 13.3455 6.09711C13.4546 6.05095 13.5537 5.9833 13.6369 5.89808C13.7506 5.78361 13.9045 5.71971 14.0647 5.72042C14.2248 5.72114 14.3781 5.78642 14.4909 5.9019C14.6036 6.01738 14.6665 6.1736 14.6658 6.3362C14.6651 6.49879 14.6008 6.65445 14.4871 6.76891C14.2915 6.96752 14.0592 7.12506 13.8036 7.23254C13.548 7.34001 13.274 7.39532 12.9974 7.3953C12.4393 7.39204 11.9046 7.16722 11.5076 6.76891C11.4244 6.68369 11.3253 6.61604 11.2162 6.56988C11.1071 6.52371 10.99 6.49995 10.8718 6.49995C10.7536 6.49995 10.6366 6.52371 10.5274 6.56988C10.4183 6.61604 10.3193 6.68369 10.2361 6.76891C10.1232 6.8832 9.97034 6.94738 9.81095 6.94738C9.65156 6.94738 9.49868 6.8832 9.38585 6.76891ZM14.4871 8.95363C14.544 9.0105 14.5891 9.07828 14.62 9.15303C14.6508 9.22778 14.6667 9.30801 14.6667 9.38905C14.6667 9.47009 14.6508 9.55032 14.62 9.62507C14.5891 9.69982 14.544 9.7676 14.4871 9.82447C14.2915 10.0231 14.0592 10.1806 13.8036 10.2881C13.548 10.3956 13.274 10.4509 12.9974 10.4509C12.4393 10.4476 11.9046 10.2228 11.5076 9.82447C11.4244 9.73924 11.3253 9.6716 11.2162 9.62543C11.1071 9.57927 10.99 9.5555 10.8718 9.5555C10.7536 9.5555 10.6366 9.57927 10.5274 9.62543C10.4183 9.6716 10.3193 9.73924 10.2361 9.82447C10.1223 9.93893 9.96844 10.0028 9.80829 10.0021C9.64814 10.0014 9.49483 9.93613 9.38208 9.82065C9.26934 9.70517 9.2064 9.54895 9.2071 9.38635C9.20781 9.22375 9.2721 9.0681 9.38585 8.95363C9.58149 8.75502 9.81374 8.59748 10.0694 8.49001C10.325 8.38253 10.5989 8.32722 10.8756 8.32725C11.4337 8.33051 11.9684 8.55533 12.3653 8.95363C12.4486 9.03886 12.5476 9.1065 12.6567 9.15267C12.7659 9.19883 12.8829 9.2226 13.0011 9.2226C13.1193 9.2226 13.2364 9.19883 13.3455 9.15267C13.4546 9.1065 13.5537 9.03886 13.6369 8.95363C13.7497 8.83935 13.9026 8.77517 14.062 8.77517C14.2214 8.77517 14.3743 8.83935 14.4871 8.95363Z" fill="#EA1763"/>
</svg>
