<svg width="20" height="20" viewBox="0 0 20 20" fill="none" xmlns="http://www.w3.org/2000/svg">
<path fill-rule="evenodd" clip-rule="evenodd" d="M11.6667 4.58333C11.6667 4.81566 11.6667 4.93182 11.6859 5.02842C11.7648 5.42511 12.0749 5.73521 12.4716 5.81412C12.5682 5.83333 12.6843 5.83333 12.9167 5.83333C13.149 5.83333 13.2652 5.83333 13.3618 5.85255C13.7584 5.93145 14.0685 6.24155 14.1475 6.63824C14.1667 6.73484 14.1667 6.85101 14.1667 7.08333C14.1667 7.31566 14.1667 7.43182 14.1859 7.52842C14.2648 7.92511 14.5749 8.23521 14.9716 8.31412C15.0682 8.33333 15.1843 8.33333 15.4167 8.33333H17.01C17.4298 8.33333 17.8113 8.62079 17.8113 9.0406C17.8113 9.06695 17.8096 9.09328 17.8063 9.11942L17.182 14.0303L17.182 14.0303C17.1297 14.4418 17.0931 14.7303 16.9867 15.0376C16.8805 15.3445 16.7639 15.5388 16.5988 15.814L16.5865 15.8345C16.2971 16.317 16.093 16.5211 15.849 16.7631C15.473 17.1358 14.9406 17.3486 14.503 17.4704C14.0531 17.5956 13.6026 17.6517 13.3076 17.6517C13.2444 17.6517 13.2129 17.6517 13.1862 17.6503C12.6759 17.623 12.2683 17.2154 12.241 16.7051C12.2396 16.6784 12.2396 16.6468 12.2396 16.5837V15.0692C12.2396 14.682 12.2396 14.4884 12.2076 14.3274C12.076 13.6662 11.5592 13.1494 10.8981 13.0179C10.7371 12.9858 10.5435 12.9858 10.1563 12.9858C9.76904 12.9858 9.57543 12.9858 9.41443 13.0179C8.75328 13.1494 8.23645 13.6662 8.10494 14.3274C8.07292 14.4884 8.07292 14.682 8.07292 15.0692V16.5825C8.07292 16.6468 8.07292 16.6789 8.07144 16.7061C8.0437 17.2156 7.63679 17.6225 7.12727 17.6502C7.10012 17.6517 7.06797 17.6517 7.00367 17.6517C6.70866 17.6517 6.25819 17.5956 5.8083 17.4704C5.37069 17.3486 4.83826 17.1358 4.46232 16.7631C4.21829 16.5211 4.01415 16.317 3.72476 15.8345L3.71248 15.814C3.54735 15.5388 3.43082 15.3445 3.32456 15.0376C3.21814 14.7303 3.18153 14.4418 3.12931 14.0303L2.50499 9.11942C2.50167 9.09328 2.5 9.06695 2.5 9.0406C2.5 8.1313 2.92347 7.27443 3.64515 6.71841L8.31439 3.11775C8.83389 2.71707 9.47259 2.5 10.1294 2.5L10.1556 2.50012L10.1819 2.5C10.3424 2.5 10.5018 2.51297 10.6587 2.53841C10.9768 2.59 11.1359 2.61579 11.3612 2.83331C11.3962 2.86706 11.4603 2.94244 11.488 2.98235C11.6667 3.23958 11.6667 3.48384 11.6667 3.97235V4.58333Z" fill="black"/>
<path d="M13.3335 4.16675H18.3335M15.8335 1.66675V6.66675" stroke="black" stroke-width="2" stroke-linecap="round" stroke-linejoin="round"/>
</svg>
