<svg width="20" height="20" viewBox="0 0 20 20" fill="none" xmlns="http://www.w3.org/2000/svg">
<path d="M5 16.6667L15 16.6667" stroke="black" stroke-width="1.5" stroke-linecap="round"/>
<path fill-rule="evenodd" clip-rule="evenodd" d="M17.7074 9.09924C17.5992 8.64997 17.1973 8.33333 16.7352 8.33333H15.1666C14.6143 8.33333 14.1666 7.88562 14.1666 7.33333V6.83333C14.1666 6.28105 13.7189 5.83333 13.1666 5.83333H12.6666C12.1143 5.83333 11.6666 5.38562 11.6666 4.83333V3.5C11.6666 2.94771 11.2189 2.5 10.6666 2.5H5.89163C5.3187 2.50017 4.7625 2.69308 4.31251 3.04769C3.86251 3.4023 3.54491 3.89799 3.4108 4.455L1.74996 11.35C1.64535 11.785 1.64078 12.2381 1.73659 12.6752C1.8324 13.1122 2.02609 13.5218 2.3031 13.8732C2.5801 14.2245 2.93319 14.5085 3.3358 14.7037C3.7384 14.8989 4.18004 15.0002 4.62746 15H15.3733C15.8207 15 16.2622 14.8984 16.6647 14.7031C17.0672 14.5078 17.4201 14.2237 17.6969 13.8723C17.9737 13.5208 18.1673 13.1112 18.2629 12.6742C18.3586 12.2371 18.3539 11.7841 18.2491 11.3492L17.7074 9.09924Z" fill="black"/>
<path d="M15.8335 1.66667V6.66667V1.66667Z" fill="black"/>
<path d="M13.3335 4.16667H18.3335M15.8335 1.66667V6.66667" stroke="black" stroke-width="2" stroke-linecap="round" stroke-linejoin="round"/>
</svg>
