<svg width="21" height="20" viewBox="0 0 21 20" fill="none" xmlns="http://www.w3.org/2000/svg">
<path d="M18.8332 3L18.6867 10H10.4998H2.1665V3C2.1665 2.86739 2.21918 2.74021 2.31295 2.64645C2.40672 2.55268 2.5339 2.5 2.6665 2.5H18.3332C18.4658 2.5 18.593 2.55268 18.6867 2.64645C18.7805 2.74021 18.8332 2.86739 18.8332 3Z" fill="black"/>
<path d="M18.6867 10L18.8332 3C18.8332 2.86739 18.7805 2.74021 18.6867 2.64645C18.593 2.55268 18.4658 2.5 18.3332 2.5H2.6665C2.5339 2.5 2.40672 2.55268 2.31295 2.64645C2.21918 2.74021 2.1665 2.86739 2.1665 3V10M18.6867 10L18.1748 11.32C18.0706 11.6614 17.8596 11.9603 17.5727 12.1727C17.2859 12.3851 16.9384 12.4999 16.5815 12.5H15.4998H4.41817C4.06124 12.4999 3.71379 12.3851 3.42696 12.1727V12.1727C2.85914 11.7522 2.66634 11.0022 2.35099 10.3699L2.1665 10M18.6867 10H10.4998H2.1665M5.49984 17.9167C6.95817 17.9167 7.68734 16.4583 8.05192 15M15.4998 17.9167C14.0415 17.9167 13.3123 16.4583 12.9478 15M10.4998 15V17.9167" stroke="black" stroke-width="1.5" stroke-linecap="round" stroke-linejoin="round"/>
<line x1="14.25" y1="4.25" x2="16.75" y2="4.25" stroke="white" stroke-width="1.5" stroke-linecap="round"/>
</svg>
