<svg width="17" height="15" viewBox="0 0 17 15" fill="none" xmlns="http://www.w3.org/2000/svg">
<path d="M14.2286 5.84355C14.9194 5.84355 15.5819 6.12476 16.0703 6.62531C16.5588 7.12586 16.8332 7.80476 16.8332 8.51265C16.8332 9.22054 16.5588 9.89943 16.0703 10.4C15.5819 10.9005 14.9194 11.1817 14.2286 11.1817L14.1745 11.1796L14.0557 11.1892L13.2827 11.1882C13.3994 11.4775 13.464 11.7946 13.464 12.1277C13.4679 12.4619 13.4065 12.7936 13.2836 13.1032C13.1607 13.4128 12.9786 13.6942 12.7481 13.9307C12.5176 14.1672 12.2433 14.3541 11.9414 14.4805C11.6394 14.6069 11.3158 14.6701 10.9896 14.6665C9.94471 14.6665 9.1769 14.1925 8.77059 13.411C8.67777 13.2317 8.65482 13.0231 8.70637 12.8272C8.75793 12.6312 8.88014 12.4627 9.04831 12.3556C9.21648 12.2484 9.41806 12.2107 9.61231 12.2501C9.80656 12.2894 9.97898 12.4029 10.0947 12.5675L10.1989 12.7416C10.3406 12.9487 10.574 13.0651 10.9907 13.0651C11.1116 13.0686 11.2319 13.0468 11.3442 13.0009C11.4565 12.955 11.5585 12.886 11.6438 12.7982C11.7291 12.7103 11.796 12.6055 11.8402 12.4902C11.8845 12.3749 11.9053 12.2515 11.9012 12.1277C11.9012 11.6579 11.5241 11.2576 11.0219 11.2031L10.798 11.1892H0.947625C0.749656 11.1892 0.55909 11.1121 0.414434 10.9736C0.269777 10.8351 0.181816 10.6455 0.168322 10.4431C0.154829 10.2407 0.216809 10.0406 0.341741 9.88318C0.466672 9.7258 0.645239 9.62289 0.84136 9.59523L0.947625 9.58776H14.0557L14.1057 9.5899L14.1672 9.58242L14.3505 9.57281C14.5291 9.55087 14.699 9.48195 14.8439 9.37275C14.9887 9.26355 15.1035 9.11779 15.1771 8.94966C15.2507 8.78152 15.2805 8.59673 15.2638 8.41326C15.247 8.22979 15.1842 8.05389 15.0814 7.90267C14.9787 7.75145 14.8395 7.63006 14.6774 7.55031C14.5153 7.47056 14.3358 7.43515 14.1564 7.44755C13.977 7.45995 13.8038 7.51972 13.6536 7.62105C13.5034 7.72238 13.3814 7.86182 13.2993 8.0258L13.2056 8.24681C13.1132 8.42648 12.9577 8.56349 12.7706 8.6301C12.5834 8.69671 12.3785 8.68795 12.1973 8.60559C12.0162 8.52323 11.8724 8.37342 11.795 8.18649C11.7176 7.99956 11.7123 7.78947 11.7804 7.59875C11.9637 7.08426 12.2968 6.63994 12.7348 6.32599C13.1727 6.01203 13.6942 5.84361 14.2286 5.84355ZM7.97777 0.500013C8.90721 0.497488 9.80251 0.858784 10.4807 1.51007C11.1589 2.16136 11.5688 3.05347 11.6267 4.00411C11.6846 4.95475 11.386 5.89215 10.792 6.62476C10.1981 7.35737 9.3535 7.82988 8.43096 7.94573L8.32678 7.96708L8.21947 7.97349H0.947625C0.749656 7.97343 0.55909 7.89636 0.414434 7.75786C0.269777 7.61935 0.181816 7.42974 0.168322 7.22734C0.154829 7.02493 0.216809 6.82483 0.341741 6.66745C0.466672 6.51007 0.645239 6.40716 0.84136 6.3795L0.947625 6.37203H7.97881C8.39091 6.37203 8.79376 6.2468 9.13641 6.01217C9.47906 5.77754 9.74613 5.44406 9.90383 5.05389C10.0615 4.66372 10.1028 4.23438 10.0224 3.82018C9.942 3.40598 9.74356 3.02551 9.45216 2.72688C9.16076 2.42826 8.78949 2.22489 8.38531 2.1425C7.98112 2.06011 7.56218 2.1024 7.18145 2.26401C6.80071 2.42563 6.4753 2.69931 6.24634 3.05045C6.01739 3.4016 5.89519 3.81443 5.89519 4.23675C5.89519 4.44912 5.81287 4.65279 5.66633 4.80295C5.5198 4.95312 5.32106 5.03748 5.11383 5.03748C4.9066 5.03748 4.70786 4.95312 4.56133 4.80295C4.41479 4.65279 4.33247 4.44912 4.33247 4.23675C4.33247 3.24571 4.71664 2.29525 5.40046 1.59448C6.08428 0.893704 7.01174 0.500013 7.97881 0.500013H7.97777Z" fill="#EA8917"/>
</svg>
