<svg width="40" height="40" viewBox="0 0 40 40" fill="none" xmlns="http://www.w3.org/2000/svg">
<path d="M20 0C8.95 0 0 8.95 0 20C0 30.15 7.55 38.5167 17.3333 39.8333V35.8333C17.3418 35.2725 17.1721 34.7234 16.8486 34.2652C16.5251 33.807 16.0646 33.4632 15.5333 33.2833C12.6995 32.3276 10.2456 30.4905 8.53042 28.0406C6.81519 25.5907 5.92852 22.6565 6 19.6667C6.07448 15.9813 7.60453 12.4753 10.2559 9.9145C12.9072 7.35373 16.4643 5.9464 20.15 6C22.0201 6.01876 23.8676 6.41204 25.5832 7.15661C27.2988 7.90119 28.8479 8.98196 30.1389 10.3351C31.4299 11.6883 32.4367 13.2864 33.0999 15.0351C33.7631 16.7838 34.0691 18.6477 34 20.5167L33.9833 20.6333C33.9713 20.8448 33.9546 21.0559 33.9333 21.2667C33.9333 21.3833 33.9167 21.5 33.9 21.6C33.9 21.7333 33.8833 21.8667 33.8667 21.9833L33.8333 22.15C32.1167 33.45 17.4167 39.7833 17.3333 39.8333C18.2 39.95 19.1 40 20 40C31.05 40 40 31.05 40 20C40 8.95 31.05 0 20 0Z" fill="#01CAFE"/>
</svg>
