<svg width="13" height="18" viewBox="0 0 13 18" fill="none" xmlns="http://www.w3.org/2000/svg">
<path d="M11.6253 0.666667C12.2015 0.666667 12.667 1.13314 12.667 1.70833C12.667 2.28353 12.2015 2.75 11.6253 2.75V3.10742C11.6253 4.48828 11.0752 5.81315 10.0986 6.78971L7.8916 9L10.0986 11.2103C11.0752 12.1868 11.6253 13.5117 11.6253 14.8919V15.25C12.2015 15.25 12.667 15.7155 12.667 16.2917C12.667 16.8678 12.2015 17.3333 11.6253 17.3333H1.20866C0.633464 17.3333 0.166992 16.8678 0.166992 16.2917C0.166992 15.7155 0.633464 15.25 1.20866 15.25V14.8919C1.20866 13.5117 1.75749 12.1868 2.73405 11.2103L4.94238 9L2.73405 6.78971C1.75749 5.81315 1.20866 4.48828 1.20866 3.10742V2.75C0.633464 2.75 0.166992 2.28353 0.166992 1.70833C0.166992 1.13314 0.633464 0.666667 1.20866 0.666667H11.6253ZM8.62728 12.6816L6.41699 10.4746L4.20671 12.6816C3.62077 13.2676 3.29199 14.0651 3.29199 14.8919V15.25H9.54199V14.8919C9.54199 14.0651 9.21322 13.2676 8.62728 12.6816Z" fill="#EA1763"/>
</svg>
