<svg width="14" height="18" viewBox="0 0 14 18" fill="none" xmlns="http://www.w3.org/2000/svg">
<path d="M5.33317 17.3333H8.66651H5.33317ZM1.16651 6.49999C1.16651 4.95289 1.78109 3.46916 2.87505 2.3752C3.96901 1.28124 5.45274 0.666656 6.99984 0.666656C8.54694 0.666656 10.0307 1.28124 11.1246 2.3752C12.2186 3.46916 12.8332 4.95289 12.8332 6.49999C12.8337 7.43922 12.6066 8.36458 12.1712 9.19679C11.7357 10.029 11.1051 10.7432 10.3332 11.2783L9.88151 13.4167C9.82171 13.8108 9.62262 14.1705 9.32035 14.4304C9.01808 14.6903 8.63266 14.8333 8.23401 14.8333H5.76567C5.36702 14.8333 4.9816 14.6903 4.67933 14.4304C4.37706 14.1705 4.17797 13.8108 4.11817 13.4167L3.66651 11.2875C2.89434 10.7505 2.26365 10.0346 1.8283 9.2009C1.39295 8.3672 1.16588 7.44051 1.16651 6.49999ZM3.66651 11.5H10.3332H3.66651Z" fill="#EA1763"/>
<path d="M3.66651 11.5H10.3332M5.33317 17.3333H8.66651H5.33317ZM1.16651 6.49999C1.16651 4.95289 1.78109 3.46916 2.87505 2.3752C3.96901 1.28124 5.45274 0.666656 6.99984 0.666656C8.54693 0.666656 10.0307 1.28124 11.1246 2.3752C12.2186 3.46916 12.8332 4.95289 12.8332 6.49999C12.8337 7.43922 12.6066 8.36458 12.1712 9.19679C11.7357 10.029 11.1051 10.7432 10.3332 11.2783L9.88151 13.4167C9.82171 13.8108 9.62262 14.1705 9.32035 14.4304C9.01808 14.6903 8.63266 14.8332 8.23401 14.8333H5.76567C5.36702 14.8332 4.9816 14.6903 4.67933 14.4304C4.37706 14.1705 4.17797 13.8108 4.11817 13.4167L3.66651 11.2875C2.89434 10.7505 2.26365 10.0346 1.8283 9.2009C1.39295 8.3672 1.16588 7.44051 1.16651 6.49999V6.49999Z" stroke="#EA1763" stroke-linecap="round" stroke-linejoin="round"/>
</svg>
