<svg width="18" height="18" viewBox="0 0 18 18" fill="none" xmlns="http://www.w3.org/2000/svg">
<path fill-rule="evenodd" clip-rule="evenodd" d="M4.56484 2.0065L4.194 3.8615C4.13579 4.15216 3.99627 4.42033 3.79167 4.63482C3.58706 4.84932 3.32576 5.00132 3.03817 5.07317C2.36067 5.24265 1.75926 5.63374 1.32954 6.18425C0.899818 6.73477 0.66644 7.41313 0.666504 8.1115V13.9998C0.666504 14.8839 1.01769 15.7317 1.64281 16.3569C2.26794 16.982 3.11578 17.3332 3.99984 17.3332H13.9998C14.8839 17.3332 15.7317 16.982 16.3569 16.3569C16.982 15.7317 17.3332 14.8839 17.3332 13.9998V8.1115C17.3332 7.41313 17.0999 6.73477 16.6701 6.18425C16.2404 5.63374 15.639 5.24265 14.9615 5.07317C14.6739 5.00132 14.4126 4.84932 14.208 4.63482C14.0034 4.42033 13.8639 4.15216 13.8057 3.8615L13.4348 2.0065C13.3593 1.62854 13.1551 1.28844 12.857 1.04412C12.5589 0.799797 12.1853 0.666351 11.7998 0.666504H6.19984C5.8144 0.666351 5.44082 0.799797 5.14271 1.04412C4.8446 1.28844 4.64038 1.62854 4.56484 2.0065ZM7.33317 3.99984C7.33317 3.5396 7.70627 3.1665 8.1665 3.1665H9.83317C10.2934 3.1665 10.6665 3.5396 10.6665 3.99984C10.6665 4.46007 10.2934 4.83317 9.83317 4.83317H8.1665C7.70627 4.83317 7.33317 4.46007 7.33317 3.99984ZM8.99984 13.9998C10.8408 13.9998 12.3332 12.5075 12.3332 10.6665C12.3332 8.82555 10.8408 7.33317 8.99984 7.33317C7.15889 7.33317 5.6665 8.82555 5.6665 10.6665C5.6665 12.5075 7.15889 13.9998 8.99984 13.9998Z" fill="black"/>
</svg>
