<svg version="1.2" xmlns="http://www.w3.org/2000/svg" viewBox="0 0 400 400" width="400" height="400">
	<title>New Project</title>
	<style>
		.s0 { fill: #f9f9f9 } 
		.s1 { fill: #ea1762 } 
		.s2 { fill: #ffffff } 
	</style>
	<path id="Layer 1 copy" class="s0" d="m200.5 392c-105.9 0-191.5-85.6-191.5-191.5 0-105.9 85.6-191.5 191.5-191.5 105.9 0 191.5 85.6 191.5 191.5 0 105.9-85.6 191.5-191.5 191.5z"/>
	<path id="Layer 1" class="s1" d="m200.5 370.7c-93.6 0-169.3-75.6-169.3-169.2 0-93.6 75.7-169.3 169.3-169.3 93.6 0 169.3 75.7 169.3 169.3 0 93.6-75.7 169.2-169.3 169.2z"/>
	<path id="Layer 2" fill-rule="evenodd" class="s2" d="m225.4 265.2v30.2q0 3.5-2.5 6-2.6 2.6-6.1 2.6h-34.4q-3.5 0-6-2.6-2.6-2.5-2.6-6v-30.2q0-3.5 2.6-6 2.5-2.6 6-2.6h34.4q3.5 0 6.1 2.6 2.5 2.5 2.5 6zm1.7-148.2q-2.5-2.6-6-2.6h-43q-3.5 0-6 2.6-2.4 2.5-2.3 6l3.8 103.4q0.1 3.5 2.7 6.1 2.6 2.6 6.1 2.6h34.4q3.5 0 6.2-2.6 2.6-2.6 2.7-6.1l3.8-103.4q0.1-3.5-2.4-6z"/>
</svg>