<svg width="18" height="18" viewBox="0 0 18 18" fill="none" xmlns="http://www.w3.org/2000/svg">
<path d="M14.5148 5.21844L4.33567 0.737608C4.132 0.648315 3.90121 0.64352 3.694 0.724274C3.5916 0.764841 3.49824 0.825265 3.4193 0.902067C3.34035 0.978869 3.27737 1.07053 3.234 1.17177L0.734004 7.00511C0.646948 7.20822 0.644132 7.4376 0.726177 7.64279C0.808222 7.84798 0.968407 8.01218 1.1715 8.09928L6.07192 10.199C6.57085 10.4128 6.80813 10.9856 6.60654 11.4896L6.18711 12.5382C6.03525 12.9178 5.66754 13.1668 5.25864 13.1668H3.33317C2.78089 13.1668 2.33317 12.7191 2.33317 12.1668V11.5001C2.33317 11.0399 1.96007 10.6668 1.49984 10.6668C1.0396 10.6668 0.666504 11.0399 0.666504 11.5001V16.5001C0.666504 16.9603 1.0396 17.3334 1.49984 17.3334C1.96007 17.3334 2.33317 16.9603 2.33317 16.5001V15.8334C2.33317 15.2812 2.78089 14.8334 3.33317 14.8334H5.93567C6.6215 14.8334 7.229 14.4218 7.48234 13.7851L8.12007 12.1913C8.32876 11.6697 8.92601 11.4224 9.44236 11.6436L11.3498 12.4609C11.552 12.5478 11.7804 12.5512 11.9851 12.4703C12.1898 12.3895 12.3541 12.2309 12.4423 12.0293L14.9423 6.31511C15.0308 6.11296 15.0355 5.88398 14.9553 5.67839C14.8752 5.47281 14.7168 5.3074 14.5148 5.21844ZM15.9174 11.8695C15.7466 12.2969 15.2616 12.5051 14.8341 12.3343C14.4065 12.1636 14.1984 11.6784 14.3692 11.2509L15.4158 8.6319C15.5865 8.20465 16.0711 7.99655 16.4985 8.16699C16.9263 8.33759 17.1346 8.82276 16.9638 9.25042L15.9174 11.8695Z" fill="#EA1763"/>
</svg>
