<svg width="17" height="18" viewBox="0 0 17 18" fill="none" xmlns="http://www.w3.org/2000/svg">
<path d="M3.19406 1.36863L3.1941 1.36855C3.2115 1.32794 3.23676 1.29116 3.26843 1.26035C3.29978 1.22986 3.33678 1.2058 3.37736 1.18953C3.46067 1.15745 3.5533 1.15952 3.63512 1.1953C3.63522 1.19534 3.63531 1.19538 3.6354 1.19543L13.8138 5.6759C13.8138 5.67592 13.8138 5.67594 13.8139 5.67596C13.8946 5.71155 13.9579 5.77769 13.9899 5.85988C14.022 5.94212 14.0201 6.03371 13.9848 6.11457L13.9847 6.11459L11.4847 11.8288L11.4847 11.8288C11.4495 11.9094 11.3837 11.9729 11.3018 12.0052C11.22 12.0376 11.1286 12.0362 11.0477 12.0015L11.0473 12.0012L9.13978 11.1839C8.36525 10.852 7.46938 11.2231 7.15634 12.0054L6.51861 13.5993L6.51825 13.6001C6.34075 14.0462 5.91754 14.3333 5.43616 14.3333H2.83366C2.00523 14.3333 1.33366 15.0049 1.33366 15.8333V16.5C1.33366 16.6841 1.18442 16.8333 1.00033 16.8333C0.81623 16.8333 0.666992 16.6841 0.666992 16.5V11.5C0.666992 11.3159 0.816231 11.1667 1.00033 11.1667C1.18442 11.1667 1.33366 11.3159 1.33366 11.5V12.1667C1.33366 12.9951 2.00523 13.6667 2.83366 13.6667H4.75913C5.37248 13.6667 5.92405 13.2932 6.15184 12.7238L6.57126 11.6752C6.87366 10.9192 6.51774 10.06 5.76933 9.73936L0.869058 7.63964C0.78782 7.6048 0.723746 7.53912 0.690928 7.45705C0.65811 7.37497 0.659236 7.28322 0.694059 7.20197L0.694065 7.20196L3.19406 1.36863ZM14.9536 11.6838C14.8852 11.8549 14.6911 11.9382 14.5201 11.8699C14.3489 11.8015 14.2656 11.6074 14.334 11.4363L15.3806 8.81733C15.4489 8.64638 15.6428 8.56312 15.8138 8.63131C15.9849 8.69957 16.0683 8.8937 15.9999 9.06481L14.9536 11.6838Z" fill="#EA1763" stroke="#EA1763"/>
</svg>
