<svg width="21" height="20" viewBox="0 0 21 20" fill="none" xmlns="http://www.w3.org/2000/svg">
<path d="M4.69501 9.26417C3.90685 9.46249 3.21824 9.9418 2.75855 10.612C2.29887 11.2823 2.09974 12.0973 2.1986 12.904C2.29745 13.7107 2.68748 14.4535 3.2954 14.9929C3.90332 15.5323 4.68728 15.8312 5.50001 15.8333H14.6667C15.255 15.8329 15.8367 15.7079 16.3732 15.4665C16.9098 15.2252 17.3892 14.8729 17.7798 14.4329C18.1704 13.9929 18.4634 13.4752 18.6395 12.9138C18.8156 12.3524 18.8708 11.7601 18.8015 11.1758C18.7322 10.5915 18.5399 10.0286 18.2373 9.52395C17.9348 9.01934 17.5288 8.58454 17.046 8.24815C16.5633 7.91177 16.0148 7.68143 15.4367 7.5723C14.8585 7.46317 14.2638 7.47772 13.6917 7.615L12.5833 7.91667" fill="white"/>
<path d="M13.6917 7.615C13.4069 6.48715 12.7039 5.50979 11.7252 4.88105C10.7464 4.25232 9.56528 4.01925 8.4211 4.22909C7.27692 4.43893 6.25533 5.07599 5.56344 6.01112C4.87154 6.94625 4.5611 8.10948 4.69505 9.265C4.69505 9.265 4.82255 10 5.08339 10.4167" fill="white"/>
</svg>
