<svg width="20" height="14" viewBox="0 0 20 14" fill="none" xmlns="http://www.w3.org/2000/svg">
<path d="M4.19501 6.26417C3.40685 6.46249 2.71824 6.9418 2.25855 7.61203C1.79887 8.28227 1.59974 9.0973 1.6986 9.90399C1.79745 10.7107 2.18748 11.4535 2.7954 11.9929C3.40332 12.5323 4.18728 12.8312 5.00001 12.8333H14.1667C14.755 12.8329 15.3367 12.7079 15.8732 12.4665C16.4098 12.2252 16.8892 11.8729 17.2798 11.4329C17.6704 10.9929 17.9634 10.4752 18.1395 9.91377C18.3156 9.35238 18.3708 8.76006 18.3015 8.17579C18.2322 7.59152 18.0399 7.02855 17.7373 6.52395C17.4348 6.01934 17.0288 5.58454 16.546 5.24815C16.0633 4.91177 15.5148 4.68143 14.9367 4.5723C14.3585 4.46317 13.7638 4.47772 13.1917 4.615L12.0833 4.91667" fill="#EA1763"/>
<path d="M4.19501 6.26417C3.40685 6.46249 2.71824 6.9418 2.25855 7.61203C1.79887 8.28227 1.59974 9.0973 1.6986 9.90399C1.79745 10.7107 2.18748 11.4535 2.7954 11.9929C3.40332 12.5323 4.18728 12.8312 5.00001 12.8333H14.1667C14.755 12.8329 15.3367 12.7079 15.8732 12.4665C16.4098 12.2252 16.8892 11.8729 17.2798 11.4329C17.6704 10.9929 17.9634 10.4752 18.1395 9.91377C18.3156 9.35238 18.3708 8.76006 18.3015 8.17579C18.2322 7.59152 18.0399 7.02855 17.7373 6.52395C17.4348 6.01934 17.0288 5.58454 16.546 5.24815C16.0633 4.91177 15.5148 4.68143 14.9367 4.5723C14.3585 4.46317 13.7638 4.47772 13.1917 4.615L12.0833 4.91667" stroke="#EA1763" stroke-width="2" stroke-linecap="round" stroke-linejoin="round"/>
<path d="M13.1912 4.61499C12.9064 3.48713 12.2034 2.50977 11.2247 1.88104C10.246 1.2523 9.06479 1.01923 7.92061 1.22908C6.77643 1.43892 5.75484 2.07598 5.06295 3.0111C4.37105 3.94623 4.06061 5.10946 4.19456 6.26499C4.19456 6.26499 4.32206 6.99999 4.5829 7.41666" fill="#EA1763"/>
<path d="M13.1912 4.61499C12.9064 3.48713 12.2034 2.50977 11.2247 1.88104C10.246 1.2523 9.06479 1.01923 7.92061 1.22908C6.77643 1.43892 5.75484 2.07598 5.06295 3.0111C4.37105 3.94623 4.06061 5.10946 4.19456 6.26499C4.19456 6.26499 4.32206 6.99999 4.5829 7.41666" stroke="#EA1763" stroke-width="2" stroke-linecap="round" stroke-linejoin="round"/>
</svg>
