<svg width="17" height="20" viewBox="0 0 17 20" fill="none" xmlns="http://www.w3.org/2000/svg">
<path d="M1 5.83317L3.91667 7.49984M16 14.1665L13.0833 12.4998M8.5 9.99984L3.91667 7.49984M8.5 9.99984L3.91667 12.4998M8.5 9.99984V4.1665M8.5 9.99984V15.4165M8.5 9.99984L13.0833 12.4998M8.5 9.99984L13.0833 7.49984M8.5 1.6665V4.1665M8.5 18.3332V15.4165M16 5.83317L13.0833 7.49984M1 14.1665L3.91667 12.4998M3.91667 7.49984L1 8.33317M3.91667 7.49984L3.5 4.58317M3.91667 12.4998L1 11.6665M3.91667 12.4998L3.5 15.4165M8.5 4.1665L6.41667 3.33317M8.5 4.1665L10.5833 3.33317M8.5 15.4165L10.5833 16.6665M8.5 15.4165L6.41667 16.6665M13.0833 12.4998L13.5 15.4165M13.0833 12.4998L16 11.6665M13.0833 7.49984L16 8.33317M13.0833 7.49984L13.5 4.58317" stroke="white" stroke-width="2" stroke-linecap="round" stroke-linejoin="round"/>
</svg>
