<svg width="16" height="17" viewBox="0 0 16 17" fill="none" xmlns="http://www.w3.org/2000/svg">
<path fill-rule="evenodd" clip-rule="evenodd" d="M4.99999 0.666656C5.46023 0.666656 5.83333 1.03975 5.83333 1.49999V3.16666H10.1667V1.49999C10.1667 1.03975 10.5398 0.666656 11 0.666656C11.4602 0.666656 11.8333 1.03975 11.8333 1.49999V3.16666H12.5C14.1569 3.16666 15.5 4.49322 15.5 6.12962V13.537C15.5 15.1734 14.1569 16.5 12.5 16.5H3.5C1.84315 16.5 0.5 15.1734 0.5 13.537V6.12962C0.5 4.49322 1.84315 3.16666 3.5 3.16666H4.16666V1.49999C4.16666 1.03975 4.53976 0.666656 4.99999 0.666656ZM3.83333 6.49999C3.3731 6.49999 3 6.87309 3 7.33332C3 7.79356 3.3731 8.16666 3.83333 8.16666H12.1667C12.6269 8.16666 13 7.79356 13 7.33332C13 6.87309 12.6269 6.49999 12.1667 6.49999H3.83333Z" fill="white"/>
</svg>
