<svg width="20" height="20" viewBox="0 0 20 20" fill="none" xmlns="http://www.w3.org/2000/svg">
<path d="M4.99984 5.00008H3.33317L4.64984 16.8501C4.69497 17.2579 4.88895 17.6347 5.19463 17.9084C5.50031 18.1821 5.8962 18.3334 6.3065 18.3334H13.6932C14.1035 18.3334 14.4994 18.1821 14.805 17.9084C15.1107 17.6347 15.3047 17.2579 15.3498 16.8501L16.6665 5.00008H14.9998H4.99984Z" fill="white"/>
<path d="M3.33317 5.00008H16.6665M3.33317 5.00008L4.64984 16.8501C4.69497 17.2579 4.88895 17.6347 5.19463 17.9084C5.50031 18.1821 5.8962 18.3334 6.3065 18.3334H13.6932C14.1035 18.3334 14.4994 18.1821 14.805 17.9084C15.1107 17.6347 15.3047 17.2579 15.3498 16.8501L16.6665 5.00008M3.33317 5.00008H4.99984M16.6665 5.00008H14.9998M14.9998 5.00008L13.8798 2.62258C13.745 2.33659 13.5316 2.09486 13.2645 1.92562C12.9974 1.75637 12.6877 1.66659 12.3715 1.66675H7.62817C7.31212 1.66674 7.00259 1.7566 6.73567 1.92584C6.46876 2.09508 6.25546 2.33672 6.12067 2.62258L4.99984 5.00008M14.9998 5.00008H4.99984M1.6665 5.00008H18.3332" stroke="white" stroke-width="2" stroke-linecap="round" stroke-linejoin="round"/>
<path d="M8.3335 9.16675V13.3334M11.6668 9.16675V13.3334" stroke="black" stroke-width="2" stroke-linecap="round" stroke-linejoin="round"/>
</svg>
