<svg width="20" height="20" viewBox="0 0 20 20" fill="none" xmlns="http://www.w3.org/2000/svg">
<path d="M5 16.6665L12.5 16.6665" stroke="#EA8917" stroke-width="1.5" stroke-linecap="round"/>
<path fill-rule="evenodd" clip-rule="evenodd" d="M3.42459 2.73757C3.0428 2.35578 2.46948 2.3101 2.14404 2.63554C1.81861 2.96097 1.86429 3.53429 2.24608 3.91608L2.89299 4.563C3.13921 4.80921 3.23962 5.16577 3.15808 5.50428L1.74996 11.3501C1.64535 11.7852 1.64078 12.2382 1.73659 12.6753C1.8324 13.1123 2.02609 13.5219 2.3031 13.8733C2.5801 14.2247 2.93319 14.5086 3.3358 14.7038C3.7384 14.899 4.18004 15.0003 4.62746 15.0001H12.9159C13.1811 15.0001 13.4355 15.1055 13.623 15.293L14.6893 16.3593C15.071 16.7411 15.6444 16.7867 15.9698 16.4613C16.2952 16.1359 16.2496 15.5625 15.8678 15.1808L3.42459 2.73757ZM5.02921 2.85086C4.9641 2.78575 4.97605 2.6685 5.06313 2.63859C5.32793 2.54762 5.60773 2.50021 5.89163 2.50013H14.1066C15.2866 2.50013 16.3125 3.30846 16.5891 4.45513L18.2491 11.3493C18.3539 11.7842 18.3586 12.2373 18.2629 12.6743C18.1673 13.1113 17.9737 13.521 17.6969 13.8724C17.6096 13.9832 17.5147 14.0874 17.4131 14.1841C17.0901 14.4918 16.59 14.4117 16.2745 14.0962L5.02921 2.85086Z" fill="#EA8917"/>
</svg>
