<svg width="21" height="20" viewBox="0 0 21 20" fill="none" xmlns="http://www.w3.org/2000/svg">
<path d="M3.9108 4.455C4.04491 3.89799 4.36251 3.4023 4.8125 3.04769C5.2625 2.69308 5.8187 2.50017 6.39163 2.5H14.6066C15.7866 2.5 16.8125 3.30833 17.0891 4.455L18.7491 11.3492C18.8539 11.7841 18.8586 12.2371 18.7629 12.6742C18.6673 13.1112 18.4737 13.5208 18.1969 13.8723C17.9201 14.2237 17.5672 14.5078 17.1647 14.7031C16.7622 14.8984 16.3207 15 15.8733 15H5.12746C4.68004 15.0002 4.2384 14.8989 3.8358 14.7037C3.43319 14.5085 3.0801 14.2245 2.8031 13.8732C2.52609 13.5218 2.3324 13.1122 2.23659 12.6752C2.14078 12.2381 2.14535 11.785 2.24996 11.35L3.9108 4.455Z" fill="white"/>
<path d="M5.5 16.6667L15.5 16.6667" stroke="white" stroke-width="1.5" stroke-linecap="round"/>
</svg>
