<svg width="18" height="18" viewBox="0 0 18 18" fill="none" xmlns="http://www.w3.org/2000/svg">
<path fill-rule="evenodd" clip-rule="evenodd" d="M12.2325 1.57304C12.7928 1.03692 13.5407 0.741459 14.316 0.749933C15.0914 0.758407 15.8327 1.07014 16.3811 1.61838C16.9295 2.16662 17.2414 2.90779 17.2501 3.68318C17.2588 4.45857 16.9635 5.20655 16.4276 5.76694L16.4146 5.78023L6.21545 15.9785C5.86647 16.3275 5.42194 16.5655 4.93798 16.6623L1.66381 17.3173C1.39059 17.3719 1.10813 17.2864 0.911098 17.0894C0.714068 16.8924 0.628544 16.6099 0.683188 16.3367L1.33819 13.0617C1.43499 12.5777 1.67289 12.1332 2.02189 11.7842L12.2194 1.58589L12.2325 1.57304ZM12.0896 4.24419C11.7642 3.91876 11.2365 3.91876 10.9111 4.24419C10.5856 4.56963 10.5856 5.09727 10.9111 5.42271L12.5778 7.08937C12.9032 7.41481 13.4308 7.41481 13.7563 7.08937C14.0817 6.76394 14.0817 6.2363 13.7563 5.91086L12.0896 4.24419Z" fill="white"/>
</svg>
