<svg width="14" height="18" viewBox="0 0 14 18" fill="none" xmlns="http://www.w3.org/2000/svg">
<path d="M11.7366 2.0026C12.1707 1.45344 11.7616 0.666772 11.0399 0.666772H5.44324C5.29169 0.665665 5.14241 0.703565 5.00975 0.776828C4.87709 0.850091 4.76551 0.956253 4.68574 1.08511L0.450736 8.13177C0.116569 8.68677 0.536569 9.37927 1.2074 9.37927H3.66652C3.8573 9.37927 3.98772 9.57199 3.91679 9.74909L3.88302 9.83341L1.37324 16.1001C0.984069 16.9501 2.03574 17.7276 2.7424 17.1126L11.7564 8.58341L12.9204 7.48196C13.189 7.22778 13.0092 6.77594 12.6393 6.77594H8.41901C8.23294 6.77594 8.12903 6.56118 8.24449 6.41527L8.28865 6.35948L11.7366 2.0026Z" fill="white"/>
</svg>
