<svg width="20" height="20" viewBox="0 0 20 20" fill="none" xmlns="http://www.w3.org/2000/svg">
<path fill-rule="evenodd" clip-rule="evenodd" d="M14.7362 3.00236C15.1704 2.45319 14.7612 1.66653 14.0395 1.66653H8.44286C8.29132 1.66542 8.14204 1.70332 8.00938 1.77658C7.87672 1.84985 7.76513 1.95601 7.68536 2.08486L6.80316 3.55277C6.56665 3.9463 6.62851 4.45033 6.95317 4.775L12.5295 10.3513C12.9124 10.7342 13.5305 10.7427 13.9239 10.3705L14.8417 9.50206C15.4986 8.88054 15.0587 7.77569 14.1544 7.77569H11.8418C11.4845 7.77569 11.285 7.36334 11.5067 7.08319L14.7362 3.00236ZM10.535 13.5772C10.9283 13.205 11.5465 13.2135 11.9294 13.5964L14.692 16.359C15.0738 16.7408 15.6471 16.7865 15.9725 16.461C16.298 16.1356 16.2523 15.5623 15.8705 15.1805L3.42731 2.73729C3.04552 2.35551 2.4722 2.30983 2.14677 2.63526C1.82133 2.9607 1.86701 3.53402 2.2488 3.91581L4.40472 6.07173C4.72938 6.39639 4.79124 6.90042 4.55473 7.29395L3.45036 9.13153C3.11619 9.68653 3.53619 10.379 4.20703 10.379H6.57529C6.80958 10.379 6.96974 10.6157 6.88264 10.8332L4.37286 17.0999C3.98369 17.9499 5.03536 18.7274 5.74203 18.1124L10.535 13.5772Z" fill="white"/>
</svg>
