<svg width="40" height="37" viewBox="0 0 40 37" fill="none" xmlns="http://www.w3.org/2000/svg">
<path d="M10.9091 0C8.01582 0 5.24105 1.14935 3.1952 3.1952C1.14935 5.24105 0 8.01582 0 10.9091C0 13.8024 1.14935 16.5771 3.1952 18.623C5.24105 20.6688 8.01582 21.8182 10.9091 21.8182C13.8024 21.8182 16.5771 20.6688 18.623 18.623C20.6688 16.5771 21.8182 13.8024 21.8182 10.9091C21.8182 8.01582 20.6688 5.24105 18.623 3.1952C16.5771 1.14935 13.8024 0 10.9091 0Z" fill="#4285F4"/>
<path d="M29.0909 10.9091C27.6443 10.9091 26.2569 11.4838 25.234 12.5067C24.211 13.5296 23.6364 14.917 23.6364 16.3636C23.6364 17.8103 24.211 19.1977 25.234 20.2206C26.2569 21.2435 27.6443 21.8182 29.0909 21.8182C30.5375 21.8182 31.9249 21.2435 32.9479 20.2206C33.9708 19.1977 34.5455 17.8103 34.5455 16.3636C34.5455 14.917 33.9708 13.5296 32.9479 12.5067C31.9249 11.4838 30.5375 10.9091 29.0909 10.9091Z" fill="#EA4335"/>
<path fill-rule="evenodd" clip-rule="evenodd" d="M35.3443 8.07152C35.8557 7.56006 36.5494 7.27273 37.2727 7.27273C37.996 7.27273 38.6897 7.56006 39.2012 8.07152C39.7127 8.58299 40 9.27668 40 10C40 10.7233 39.7127 11.417 39.2012 11.9285C38.6897 12.4399 37.996 12.7273 37.2727 12.7273C36.5494 12.7273 35.8557 12.4399 35.3443 11.9285C34.8328 11.417 34.5455 10.7233 34.5455 10C34.5455 9.27668 34.8328 8.58299 35.3443 8.07152Z" fill="#34A853"/>
<path d="M29.0909 23.6364C27.4032 23.6364 25.7846 24.3068 24.5911 25.5002C23.3977 26.6936 22.7273 28.3123 22.7273 30C22.7273 31.6877 23.3977 33.3064 24.5911 34.4998C25.7846 35.6932 27.4032 36.3636 29.0909 36.3636C30.7787 36.3636 32.3973 35.6932 33.5907 34.4998C34.7841 33.3064 35.4545 31.6877 35.4545 30C35.4545 28.3123 34.7841 26.6936 33.5907 25.5002C32.3973 24.3068 30.7787 23.6364 29.0909 23.6364Z" fill="#FBBC05"/>
</svg>
