<svg width="24" height="24" viewBox="0 0 24 24" fill="none" xmlns="http://www.w3.org/2000/svg">
<path d="M6.96996 20.9645C7.50982 21.1147 8.0504 21.1821 8.40441 21.1821C8.66756 21.1821 8.79913 21.1821 8.90801 21.1574C9.28413 21.0724 9.57785 20.7787 9.66288 20.4026C9.6875 20.2937 9.6875 20.1621 9.6875 19.899V18.083C9.6875 17.6184 9.6875 17.386 9.72593 17.1928C9.88374 16.3994 10.5039 15.7793 11.2973 15.6214C11.4905 15.583 11.7228 15.583 12.1875 15.583C12.6522 15.583 12.8845 15.583 13.0777 15.6214C13.8711 15.7793 14.4913 16.3994 14.6491 17.1928C14.6875 17.386 14.6875 17.6184 14.6875 18.083V19.9004C14.6875 20.1622 14.6875 20.2931 14.7119 20.4014C14.7966 20.7785 15.0911 21.0729 15.4681 21.1577C15.5765 21.1821 15.7073 21.1821 15.9691 21.1821C16.3231 21.1821 16.8637 21.1147 17.4036 20.9645C17.9287 20.8184 18.5676 20.563 19.0187 20.1157C19.3116 19.8254 19.5565 19.5804 19.9038 19.0014L19.9185 18.9768C20.1167 18.6465 20.2565 18.4134 20.3841 18.0451C20.5118 17.6764 20.5557 17.3301 20.6183 16.8364L21.3675 10.9433C21.3715 10.9119 21.3735 10.8803 21.3735 10.8487C21.3735 9.75757 20.865 8.72907 19.999 8.06184L14.3963 3.7413C13.7729 3.26049 13.0064 3 12.2183 3L12.1868 3.00014L12.1552 3C11.3671 3 10.6007 3.26049 9.97726 3.7413L4.37418 8.06209C3.50816 8.72932 3 9.75757 3 10.8487C3 10.8803 3.002 10.9119 3.00599 10.9433L3.75518 16.8364C3.81784 17.3301 3.86177 17.6763 3.98947 18.0451C4.11698 18.4134 4.25682 18.6465 4.45498 18.9768L4.46971 19.0014C4.81698 19.5804 5.06194 19.8254 5.35479 20.1157C5.80591 20.563 6.44483 20.8184 6.96996 20.9645Z" fill="black"/>
</svg>
