<svg width="16" height="16" viewBox="0 0 16 16" fill="none" xmlns="http://www.w3.org/2000/svg">
<path d="M3.8083 15.4704C4.25819 15.5956 4.70866 15.6517 5.00367 15.6517C5.06797 15.6517 5.10012 15.6517 5.12727 15.6502C5.63679 15.6225 6.0437 15.2156 6.07144 14.7061C6.07292 14.6789 6.07292 14.6468 6.07292 14.5825V13.0692C6.07292 12.682 6.07292 12.4884 6.10494 12.3274C6.23645 11.6662 6.75328 11.1494 7.41443 11.0179C7.57543 10.9858 7.76904 10.9858 8.15625 10.9858C8.54346 10.9858 8.73707 10.9858 8.89807 11.0179C9.55922 11.1494 10.076 11.6662 10.2076 12.3274C10.2396 12.4884 10.2396 12.682 10.2396 13.0692V14.5837C10.2396 14.6468 10.2396 14.6784 10.241 14.7051C10.2683 15.2154 10.6759 15.623 11.1862 15.6503C11.2129 15.6517 11.2444 15.6517 11.3076 15.6517C11.6026 15.6517 12.0531 15.5956 12.503 15.4704C12.9406 15.3486 13.473 15.1358 13.849 14.7631C14.093 14.5211 14.2971 14.317 14.5865 13.8345L14.5988 13.814C14.7639 13.5388 14.8805 13.3445 14.9867 13.0376C15.0931 12.7303 15.1297 12.4418 15.182 12.0303L15.8063 7.11942C15.8096 7.09328 15.8113 7.06695 15.8113 7.0406C15.8113 6.1313 15.3875 5.27423 14.6659 4.7182L9.99689 1.11775C9.47738 0.717075 8.83868 0.5 8.18191 0.5L8.15563 0.500116L8.12937 0.5C7.47259 0.5 6.83389 0.717075 6.31439 1.11775L1.64515 4.71841C0.923466 5.27443 0.5 6.1313 0.5 7.0406C0.5 7.06695 0.501667 7.09328 0.504991 7.11942L1.12931 12.0303C1.18153 12.4418 1.21814 12.7303 1.32456 13.0376C1.43082 13.3445 1.54735 13.5388 1.71248 13.814L1.72476 13.8345C2.01415 14.317 2.21829 14.5211 2.46232 14.7631C2.83826 15.1358 3.37069 15.3486 3.8083 15.4704Z" fill="#EA1763"/>
</svg>
