<svg width="14" height="18" viewBox="0 0 14 18" fill="none" xmlns="http://www.w3.org/2000/svg">
<path d="M7.55016 1.1501C7.2335 0.875098 6.7585 0.875098 6.44183 1.1501C2.37516 4.73343 0.333496 7.8501 0.333496 10.5001C0.333496 14.6501 3.50016 17.3334 7.00016 17.3334C10.5002 17.3334 13.6668 14.6501 13.6668 10.5001C13.6668 7.8501 11.6252 4.73343 7.55016 1.1501ZM3.52516 10.6668C3.8335 10.6668 4.0835 10.8834 4.14183 11.1834C4.4835 13.0334 6.04183 13.6668 7.17516 13.5751C7.5335 13.5584 7.8335 13.8418 7.8335 14.2001C7.8335 14.5334 7.56683 14.8084 7.2335 14.8251C5.4585 14.9334 3.3835 13.9168 2.9085 11.3918C2.89401 11.3024 2.89911 11.211 2.92343 11.1238C2.94776 11.0366 2.99072 10.9558 3.04937 10.8868C3.10801 10.8179 3.18093 10.7625 3.26308 10.7245C3.34523 10.6865 3.43465 10.6668 3.52516 10.6668Z" fill="#00C5C5"/>
</svg>
