<svg width="14" height="17" viewBox="0 0 14 17" fill="none" xmlns="http://www.w3.org/2000/svg">
<path d="M12.49 11.25L12.4906 11.2481C13.3908 10.0623 13.8771 8.61383 13.875 7.125C13.8729 5.3023 13.1478 3.55486 11.859 2.26602C10.5701 0.977169 8.82271 0.25215 7.00001 0.25M12.49 11.25L12.4852 11.2463L12.0927 10.9465L12.0927 10.9465L12.0927 10.9465L12.0926 10.9466L12.0922 10.9471L12.0906 10.9492L12.0847 10.9569L12.0631 10.9851L12.0421 11.0125M12.49 11.25L12.0156 11.092L12.0163 11.0901L12.0421 11.0125M12.49 11.25C12.49 11.25 12.3019 11.4963 12.2744 11.5294M12.0421 11.0125L12.0424 11.0117L12.0924 10.9458C12.9264 9.8471 13.377 8.50513 13.375 7.12572L13.375 7.12559C13.373 5.43529 12.7007 3.81479 11.5054 2.61957C10.3104 1.42449 8.69009 0.75215 7.00001 0.75M12.0421 11.0125L11.996 11.0727L11.9245 11.1654L11.8983 11.1991C11.8936 11.2051 11.8909 11.2084 11.8898 11.2098M7.00001 0.75C7.0002 0.75 7.0004 0.75 7.0006 0.75L7.00001 0.25M7.00001 0.75C6.99981 0.75 6.99961 0.75 6.99942 0.75L7.00001 0.25M7.00001 0.75C5.30992 0.75215 3.68966 1.42449 2.49458 2.61957C1.29935 3.81479 0.627001 5.43529 0.625007 7.12559L0.625007 7.12573C0.622984 8.50578 1.07376 9.84838 1.90819 10.9476M7.00001 0.25C5.1773 0.25215 3.42987 0.977169 2.14102 2.26602C0.852176 3.55486 0.127158 5.3023 0.125007 7.125C0.122824 8.61452 0.60937 10.0636 1.51001 11.25C1.51001 11.25 1.69751 11.4969 1.72813 11.5325L5.47453 15.9509C6.27334 16.893 7.72667 16.893 8.52546 15.9509L12.2744 11.5294M1.90819 10.9476L1.51007 11.2499L1.90825 10.9477M1.90819 10.9476L1.90821 10.9476L1.90825 10.9477M1.90819 10.9476C1.90821 10.9476 1.90823 10.9476 1.90825 10.9477M1.90825 10.9477L1.9083 10.9477L1.90868 10.9482L1.91021 10.9502L1.91611 10.958L1.93751 10.9861L2.00447 11.0738C2.02956 11.1065 2.05506 11.1397 2.07589 11.1665C2.09136 11.1864 2.10061 11.198 2.10485 11.2034C2.1074 11.2066 2.10812 11.2075 2.10729 11.2066L2.1095 11.2091L2.1095 11.2091L5.8559 15.6275C6.455 16.3341 7.545 16.3341 8.14409 15.6275L11.8898 11.2098M11.8898 11.2098C11.8894 11.2103 11.8892 11.2106 11.8892 11.2106C11.8892 11.2106 11.8894 11.2104 11.8897 11.21L12.2744 11.5294M11.8898 11.2098L11.893 11.206L12.2744 11.5294M10 7.12562V7.125C10 6.53166 9.82406 5.95164 9.49442 5.45829C9.16477 4.96494 8.69623 4.58042 8.14806 4.35336C7.59988 4.1263 6.99668 4.06689 6.41474 4.18264C5.83279 4.2984 5.29824 4.58412 4.87869 5.00368C4.45913 5.42324 4.17341 5.95779 4.05765 6.53973C3.9419 7.12167 4.00131 7.72487 4.22837 8.27305C4.45543 8.82123 4.83995 9.28976 5.3333 9.61941C5.82664 9.94905 6.40666 10.125 7.00001 10.125H7.00063C7.79581 10.124 8.55814 9.80768 9.12041 9.24541C9.68269 8.68313 9.99901 7.9208 10 7.12562Z" fill="#EA8917" stroke="#EA8917"/>
</svg>
