<svg width="20" height="20" viewBox="0 0 20 20" fill="none" xmlns="http://www.w3.org/2000/svg">
<path d="M16.953 9.22233L17.0027 9.66683H17.4499H18.3333C18.5154 9.66683 18.6666 9.81797 18.6666 10.0002C18.6666 10.1824 18.5154 10.3335 18.3333 10.3335H17.4499H17.0027L16.953 10.778C16.7768 12.3552 16.0696 13.8255 14.9475 14.9477C13.8253 16.0699 12.3549 16.7771 10.7777 16.9533L10.3333 17.0029V17.4502V18.3335C10.3333 18.5157 10.1821 18.6668 9.99992 18.6668C9.81773 18.6668 9.66658 18.5157 9.66658 18.3335V17.4502V17.0029L9.22209 16.9533C7.64493 16.7771 6.17454 16.0699 5.05238 14.9477C3.93022 13.8255 3.223 12.3552 3.04683 10.778L2.99718 10.3335H2.54992H1.66659C1.48439 10.3335 1.33325 10.1824 1.33325 10.0002C1.33325 9.81797 1.48439 9.66683 1.66659 9.66683H2.54992H2.99718L3.04683 9.22233C3.223 7.64517 3.93022 6.17479 5.05238 5.05263C6.17454 3.93047 7.64493 3.22324 9.22209 3.04707L9.66658 2.99742V2.55016V1.66683C9.66658 1.48464 9.81773 1.3335 9.99992 1.3335C10.1821 1.3335 10.3333 1.48464 10.3333 1.66683V2.55016V2.99742L10.7777 3.04707C12.3549 3.22324 13.8253 3.93047 14.9475 5.05263C16.0696 6.17479 16.7768 7.64517 16.953 9.22233ZM7.16658 10.0002C7.16658 8.43464 8.43439 7.16683 9.99992 7.16683C11.5654 7.16683 12.8333 8.43464 12.8333 10.0002C12.8333 11.5657 11.5654 12.8335 9.99992 12.8335C8.43439 12.8335 7.16658 11.5657 7.16658 10.0002ZM3.66658 10.0002C3.66658 13.5013 6.49878 16.3335 9.99992 16.3335C13.5011 16.3335 16.3333 13.5013 16.3333 10.0002C16.3333 6.49902 13.5011 3.66683 9.99992 3.66683C6.49878 3.66683 3.66658 6.49902 3.66658 10.0002Z" fill="white" stroke="white"/>
</svg>
