<svg width="15" height="15" viewBox="0 0 15 15" fill="none" xmlns="http://www.w3.org/2000/svg">
<path d="M0.833008 2.20833C0.833008 1.71105 1.03055 1.23413 1.38218 0.882503C1.73381 0.530873 2.21073 0.333328 2.70801 0.333328H9.79134C10.2886 0.333328 10.7655 0.530873 11.1172 0.882503C11.4688 1.23413 11.6663 1.71105 11.6663 2.20833V8.66666H14.583V11.375C14.583 12.0933 14.2977 12.7822 13.7898 13.2901C13.2818 13.798 12.593 14.0833 11.8747 14.0833H2.70801C2.21073 14.0833 1.73381 13.8858 1.38218 13.5342C1.03055 13.1825 0.833008 12.7056 0.833008 12.2083V2.20833ZM11.6663 12.8333H11.8747C12.2614 12.8333 12.6324 12.6797 12.9059 12.4062C13.1794 12.1327 13.333 11.7618 13.333 11.375V9.91666H11.6663V12.8333ZM3.95801 3.66666C3.79225 3.66666 3.63328 3.73251 3.51607 3.84972C3.39886 3.96693 3.33301 4.1259 3.33301 4.29166C3.33301 4.45742 3.39886 4.61639 3.51607 4.7336C3.63328 4.85081 3.79225 4.91666 3.95801 4.91666H8.54134C8.7071 4.91666 8.86607 4.85081 8.98328 4.7336C9.10049 4.61639 9.16634 4.45742 9.16634 4.29166C9.16634 4.1259 9.10049 3.96693 8.98328 3.84972C8.86607 3.73251 8.7071 3.66666 8.54134 3.66666H3.95801ZM3.95801 6.58333C3.79225 6.58333 3.63328 6.64918 3.51607 6.76639C3.39886 6.8836 3.33301 7.04257 3.33301 7.20833C3.33301 7.37409 3.39886 7.53306 3.51607 7.65027C3.63328 7.76748 3.79225 7.83333 3.95801 7.83333H8.54134C8.7071 7.83333 8.86607 7.76748 8.98328 7.65027C9.10049 7.53306 9.16634 7.37409 9.16634 7.20833C9.16634 7.04257 9.10049 6.8836 8.98328 6.76639C8.86607 6.64918 8.7071 6.58333 8.54134 6.58333H3.95801ZM3.95801 9.5C3.79225 9.5 3.63328 9.56584 3.51607 9.68305C3.39886 9.80026 3.33301 9.95924 3.33301 10.125C3.33301 10.2908 3.39886 10.4497 3.51607 10.5669C3.63328 10.6841 3.79225 10.75 3.95801 10.75H6.04134C6.2071 10.75 6.36607 10.6841 6.48328 10.5669C6.60049 10.4497 6.66634 10.2908 6.66634 10.125C6.66634 9.95924 6.60049 9.80026 6.48328 9.68305C6.36607 9.56584 6.2071 9.5 6.04134 9.5H3.95801Z" fill="white"/>
</svg>
