<svg width="20" height="20" viewBox="0 0 20 20" fill="none" xmlns="http://www.w3.org/2000/svg">
<path d="M8.33333 3.83333H16.6667C16.7551 3.83333 16.8399 3.86845 16.9024 3.93096C16.9649 3.99348 17 4.07826 17 4.16667C17 4.25507 16.9649 4.33986 16.9024 4.40237C16.8399 4.46488 16.7551 4.5 16.6667 4.5H8.33333C8.24493 4.5 8.16014 4.46488 8.09763 4.40237C8.03512 4.33986 8 4.25507 8 4.16667C8 4.07826 8.03512 3.99348 8.09763 3.93096C8.16014 3.86845 8.24493 3.83333 8.33333 3.83333ZM8.33333 9.66667H16.6667C16.7551 9.66667 16.8399 9.70179 16.9024 9.7643C16.9649 9.82681 17 9.91159 17 10C17 10.0884 16.9649 10.1732 16.9024 10.2357C16.8399 10.2982 16.7551 10.3333 16.6667 10.3333H8.33333C8.24493 10.3333 8.16014 10.2982 8.09763 10.2357C8.03512 10.1732 8 10.0884 8 10C8 9.91159 8.03512 9.82681 8.09763 9.7643C8.16014 9.70179 8.24493 9.66667 8.33333 9.66667ZM8.33333 15.5H16.6667C16.7551 15.5 16.8399 15.5351 16.9024 15.5976C16.9649 15.6601 17 15.7449 17 15.8333C17 15.9217 16.9649 16.0065 16.9024 16.069C16.8399 16.1315 16.7551 16.1667 16.6667 16.1667H8.33333C8.24493 16.1667 8.16014 16.1315 8.09763 16.069C8.03512 16.0065 8 15.9217 8 15.8333C8 15.7449 8.03512 15.6601 8.09763 15.5976C8.16014 15.5351 8.24493 15.5 8.33333 15.5ZM4.16667 5.33333C3.85725 5.33333 3.5605 5.21042 3.34171 4.99162C3.12292 4.77283 3 4.47609 3 4.16667C3 3.85725 3.12292 3.5605 3.34171 3.34171C3.5605 3.12292 3.85725 3 4.16667 3C4.47609 3 4.77283 3.12292 4.99162 3.34171C5.21042 3.5605 5.33333 3.85725 5.33333 4.16667C5.33333 4.47609 5.21042 4.77283 4.99162 4.99162C4.77283 5.21042 4.47609 5.33333 4.16667 5.33333ZM4.16667 11.1667C3.85725 11.1667 3.5605 11.0437 3.34171 10.825C3.12292 10.6062 3 10.3094 3 10C3 9.69058 3.12292 9.39383 3.34171 9.17504C3.5605 8.95625 3.85725 8.83333 4.16667 8.83333C4.47609 8.83333 4.77283 8.95625 4.99162 9.17504C5.21042 9.39383 5.33333 9.69058 5.33333 10C5.33333 10.3094 5.21042 10.6062 4.99162 10.825C4.77283 11.0437 4.47609 11.1667 4.16667 11.1667ZM4.16667 17C3.85725 17 3.5605 16.8771 3.34171 16.6583C3.12292 16.4395 3 16.1428 3 15.8333C3 15.5239 3.12292 15.2272 3.34171 15.0084C3.5605 14.7896 3.85725 14.6667 4.16667 14.6667C4.47609 14.6667 4.77283 14.7896 4.99162 15.0084C5.21042 15.2272 5.33333 15.5239 5.33333 15.8333C5.33333 16.1428 5.21042 16.4395 4.99162 16.6583C4.77283 16.8771 4.47609 17 4.16667 17Z" fill="white" stroke="white"/>
</svg>
