<svg width="19" height="14" viewBox="0 0 19 14" fill="none" xmlns="http://www.w3.org/2000/svg">
<path d="M17.333 9.5L12.333 4.5M17.333 4.5L12.333 9.5" stroke="black" stroke-width="2" stroke-linecap="round"/>
<path d="M0.666504 9.46601V4.53351C0.666504 4.05517 1.03984 3.66684 1.49984 3.66684H4.48817C4.59845 3.66645 4.7075 3.64373 4.80876 3.60004C4.91002 3.55636 5.00138 3.49262 5.07734 3.41267L7.57734 0.58934C8.10234 0.0426736 8.99984 0.430174 8.99984 1.20267V12.7977C8.99984 13.576 8.0915 13.9602 7.56984 13.4027L5.07817 10.5952C5.002 10.5129 4.90971 10.4473 4.80706 10.4023C4.70441 10.3572 4.59359 10.3338 4.4815 10.3335H1.49984C1.03984 10.3335 0.666504 9.94517 0.666504 9.46601Z" fill="black"/>
</svg>
