<svg width="17" height="10" viewBox="0 0 17 10" fill="none" xmlns="http://www.w3.org/2000/svg">
<path d="M9.5 0C9.10217 0 8.72064 0.158035 8.43934 0.43934C8.15804 0.720644 8 1.10218 8 1.5V8.5C8 8.89782 8.15804 9.27936 8.43934 9.56066C8.72064 9.84196 9.10217 10 9.5 10H10.5C10.8978 10 11.2794 9.84196 11.5607 9.56066C11.842 9.27936 12 8.89782 12 8.5V1.5C12 1.10218 11.842 0.720644 11.5607 0.43934C11.2794 0.158035 10.8978 0 10.5 0H9.5ZM14.5 0C14.1022 0 13.7206 0.158035 13.4393 0.43934C13.158 0.720644 13 1.10218 13 1.5V8.5C13 8.89782 13.158 9.27936 13.4393 9.56066C13.7206 9.84196 14.1022 10 14.5 10H15.5C15.8978 10 16.2794 9.84196 16.5607 9.56066C16.842 9.27936 17 8.89782 17 8.5V1.5C17 1.10218 16.842 0.720644 16.5607 0.43934C16.2794 0.158035 15.8978 0 15.5 0H14.5ZM1.926 0.45C1.73706 0.328525 1.51888 0.260206 1.2944 0.252227C1.06993 0.244248 0.847445 0.296904 0.650358 0.404657C0.453271 0.51241 0.28886 0.671279 0.174415 0.864557C0.0599705 1.05784 -0.00027964 1.27838 9.7576e-07 1.503V8.5C-3.45187e-05 8.7235 0.0598538 8.94292 0.173429 9.13541C0.287003 9.3279 0.45011 9.48642 0.645762 9.59445C0.841413 9.70249 1.06245 9.7561 1.28586 9.74968C1.50927 9.74327 1.72687 9.67708 1.916 9.558L7.412 6.097C7.59013 5.98499 7.7371 5.82982 7.83929 5.64587C7.94148 5.46193 7.99559 5.25517 7.99658 5.04475C7.99758 4.83433 7.94544 4.62706 7.845 4.44215C7.74456 4.25725 7.59906 4.1007 7.422 3.987L1.927 0.452L1.926 0.45Z" fill="black"/>
</svg>
