<svg width="16" height="18" viewBox="0 0 16 18" fill="none" xmlns="http://www.w3.org/2000/svg">
<path d="M15.0923 11.6731L13.5923 10.1647V6.44808C13.6123 5.06793 13.1322 3.72717 12.2408 2.67336C11.3493 1.61955 10.1067 0.92386 8.74233 0.714748C7.95051 0.61047 7.14555 0.67626 6.38117 0.907727C5.61679 1.13919 4.91056 1.53102 4.3096 2.05705C3.70865 2.58308 3.22679 3.23123 2.89617 3.95824C2.56555 4.68526 2.39379 5.47442 2.39233 6.27308V10.1647L0.89233 11.6731C0.703918 11.8646 0.576149 12.1075 0.524997 12.3712C0.473844 12.635 0.501577 12.908 0.604728 13.1561C0.707879 13.4042 0.881872 13.6164 1.10496 13.7661C1.32804 13.9159 1.59032 13.9966 1.859 13.9981H4.659V14.2814C4.69792 15.1274 5.07062 15.9235 5.69543 16.4952C6.32025 17.0669 7.14621 17.3676 7.99233 17.3314C8.83845 17.3676 9.66441 17.0669 10.2892 16.4952C10.914 15.9235 11.2867 15.1274 11.3257 14.2814V13.9981H14.1257C14.3943 13.9966 14.6566 13.9159 14.8797 13.7661C15.1028 13.6164 15.2768 13.4042 15.3799 13.1561C15.4831 12.908 15.5108 12.635 15.4597 12.3712C15.4085 12.1075 15.2807 11.8646 15.0923 11.6731ZM9.659 14.2814C9.61278 14.6822 9.4137 15.0498 9.10322 15.3075C8.79275 15.5652 8.39482 15.6932 7.99233 15.6647C7.58984 15.6932 7.19191 15.5652 6.88144 15.3075C6.57096 15.0498 6.37188 14.6822 6.32566 14.2814V13.9981H9.659V14.2814Z" fill="#EA8917"/>
</svg>
