<svg width="18" height="16" viewBox="0 0 18 16" fill="none" xmlns="http://www.w3.org/2000/svg">
<path d="M17.125 1.91406V10.6641C17.125 11.1613 16.9275 11.6383 16.5758 11.9899C16.2242 12.3415 15.7473 12.5391 15.25 12.5391H2.75C2.25272 12.5391 1.77581 12.3415 1.42417 11.9899C1.07254 11.6383 0.875 11.1613 0.875 10.6641V1.91406C0.877057 1.41741 1.07526 0.941695 1.42645 0.590509C1.77763 0.239323 2.25335 0.041119 2.75 0.0390625H15.25C15.7466 0.041119 16.2224 0.239323 16.5736 0.590509C16.9247 0.941695 17.1229 1.41741 17.125 1.91406ZM11.5 13.7891H6.5C6.33424 13.7891 6.17527 13.8549 6.05806 13.9721C5.94085 14.0893 5.875 14.2483 5.875 14.4141C5.875 14.5798 5.94085 14.7388 6.05806 14.856C6.17527 14.9732 6.33424 15.0391 6.5 15.0391H11.5C11.6658 15.0391 11.8247 14.9732 11.9419 14.856C12.0592 14.7388 12.125 14.5798 12.125 14.4141C12.125 14.2483 12.0592 14.0893 11.9419 13.9721C11.8247 13.8549 11.6658 13.7891 11.5 13.7891Z" fill="black"/>
</svg>
