<svg width="16" height="20" viewBox="0 0 16 20" fill="none" xmlns="http://www.w3.org/2000/svg">
<path d="M11.7776 19.1667H9.92576C8.90724 19.1667 8.07391 18.3417 8.07391 17.3333V13.75C8.07391 13.1977 8.52163 12.75 9.07391 12.75H12.6295C13.1818 12.75 13.6295 13.1977 13.6295 13.75V17.3333C13.6295 18.3417 12.7961 19.1667 11.7776 19.1667ZM6.93602 10.0171C6.1402 10.5805 6.53875 11.8333 7.51377 11.8333H14.1896C15.1646 11.8333 15.5632 10.5805 14.7674 10.0171L12.1999 8.19973C11.935 8.01227 11.7776 7.70798 11.7776 7.38352V4.50001C11.7776 3.02418 10.7961 0.833344 8.07391 0.833344C5.35169 0.833344 4.37021 3.02418 4.37021 4.50001C4.37021 4.91251 4.19428 5.41668 3.44428 5.41668C2.93291 5.41668 2.51836 5.00213 2.51836 4.49075V2.67594C2.51836 2.16456 2.1038 1.75001 1.59243 1.75001C1.08106 1.75001 0.666504 2.16456 0.666504 2.67594V9.07408C0.666504 9.58546 1.08106 10 1.59243 10C2.1038 10 2.51836 9.58546 2.51836 9.07408V8.17594C2.51836 7.66456 2.93291 7.25001 3.44428 7.25001C5.48132 7.25001 6.22206 5.60918 6.22206 4.50001C6.22206 4.19751 6.31465 2.66668 8.07391 2.66668C9.76836 2.66668 9.92576 4.07834 9.92576 4.50001V7.38352C9.92576 7.70798 9.76835 8.01227 9.50352 8.19973L6.93602 10.0171Z" fill="#EA1763"/>
</svg>
