<svg width="17" height="17" viewBox="0 0 17 17" fill="none" xmlns="http://www.w3.org/2000/svg">
<path d="M8.31222 2.26266L8.31221 2.26267L6.28325 6.3206C6.2832 6.32069 6.28316 6.32077 6.28312 6.32085C6.2831 6.3209 6.28307 6.32095 6.28305 6.321C6.15161 6.5842 5.9223 6.78545 5.64425 6.8816L5.64418 6.88163L2.17251 8.08163L2.17246 8.08165C2.08568 8.11163 2.00795 8.16318 1.94656 8.23145C1.88518 8.29972 1.84215 8.38248 1.82153 8.47194C1.80091 8.56141 1.80336 8.65465 1.82867 8.7429C1.85396 8.83109 1.90123 8.91142 1.96605 8.97634C1.9661 8.97639 1.96615 8.97643 1.96619 8.97648L4.55272 11.563L4.90623 11.9165L4.55276 12.2701L1 15.8236V15.9999H1.17623L4.72978 12.4463L5.08339 12.0927L5.43694 12.4464L8.02361 15.0339L8.02371 15.034C8.08865 15.099 8.16905 15.1464 8.25736 15.1718C8.34567 15.1971 8.43898 15.1996 8.52852 15.179C8.61805 15.1584 8.70086 15.1153 8.76917 15.0539C8.83747 14.9924 8.88903 14.9146 8.91898 14.8277L8.9191 14.8274L10.119 11.356L10.1191 11.3557L10.5917 11.5191C10.6449 11.3647 10.7565 11.2372 10.9025 11.1641L8.31222 2.26266ZM8.31222 2.26266C8.43917 2.00875 8.62463 1.78864 8.85333 1.62046M8.31222 2.26266L8.85333 1.62046M8.85333 1.62046L8.55712 1.21765L8.85333 1.62046Z" fill="white" stroke="white"/>
</svg>
