<svg width="20" height="20" viewBox="0 0 20 20" fill="none" xmlns="http://www.w3.org/2000/svg">
<path d="M17.2031 6.8184L13.1815 2.79683C12.9807 2.59612 12.7352 2.44599 12.465 2.35881C12.1948 2.27162 11.9078 2.24988 11.6276 2.29537C11.3474 2.34087 11.082 2.45229 10.8533 2.62046C10.6246 2.78864 10.4392 3.00875 10.3122 3.26266L10.3122 3.26267L8.28325 7.3206L8.28305 7.321L7.83583 7.09739C7.76283 7.24373 7.63538 7.35562 7.48083 7.40906L17.2031 6.8184ZM17.2031 6.8184C17.4038 7.01916 17.5539 7.26474 17.6411 7.53489C17.7283 7.80505 17.75 8.09206 17.7045 8.37227C17.659 8.65247 17.5476 8.91786 17.3794 9.14656C17.2113 9.37526 16.9911 9.56073 16.7372 9.68768L16.7372 9.68768L12.6789 11.7168L12.6785 11.7171C12.4157 11.8488 12.2148 12.0781 12.119 12.3561L17.2031 6.8184Z" fill="white" stroke="white"/>
</svg>
