<svg width="10" height="18" viewBox="0 0 10 18" fill="none" xmlns="http://www.w3.org/2000/svg">
<path d="M4.02466 13.1665C3.517 13.1665 3.10546 12.755 3.10546 12.2473C3.10546 11.5868 3.21637 11.007 3.43819 10.508C3.6748 9.99426 3.96316 9.53925 4.30329 9.14295C4.6582 8.73197 5.02789 8.35034 5.41238 7.99808C5.92996 7.48435 6.39578 6.98531 6.80984 6.50094C7.23869 6.01657 7.45311 5.44413 7.45311 4.78363C7.45311 4.40201 7.35699 4.0424 7.16475 3.70481C6.97251 3.36722 6.68414 3.09568 6.29966 2.89019C5.92996 2.6847 5.47153 2.58196 4.92438 2.58196C4.1702 2.58196 3.51953 2.81681 2.97237 3.2865C2.68321 3.53472 2.45188 3.82598 2.27836 4.16029C2.01446 4.66875 1.48074 5.05161 0.921914 4.92555C0.405309 4.80901 0.0555422 4.30394 0.231961 3.8046C0.386554 3.36704 0.597598 2.96683 0.865094 2.60398C1.32352 1.98751 1.90025 1.51048 2.59528 1.17289C3.3051 0.835299 4.08886 0.666504 4.94656 0.666504C5.90778 0.666504 6.7359 0.864655 7.43093 1.26096C8.14075 1.64258 8.68791 2.14162 9.07239 2.75809C9.45688 3.37456 9.64912 4.0424 9.64912 4.76162C9.64912 5.40744 9.51603 5.97988 9.24985 6.47892C8.98366 6.96329 8.64354 7.41096 8.22948 7.82194C7.83021 8.23292 7.43093 8.6439 7.03166 9.05488C6.54366 9.52457 6.11481 10.0163 5.74511 10.53C5.3902 11.029 5.21274 11.6162 5.21274 12.2913C5.21274 12.7747 4.82092 13.1665 4.33758 13.1665H4.02466ZM4.12765 17.3332C3.57536 17.3332 3.12765 16.8855 3.12765 16.3332V15.6912C3.12765 15.1389 3.57536 14.6912 4.12765 14.6912H4.27929C4.83157 14.6912 5.27929 15.1389 5.27929 15.6912V16.3332C5.27929 16.8855 4.83157 17.3332 4.27929 17.3332H4.12765Z" fill="#00C5C5"/>
</svg>
