<svg width="12" height="18" viewBox="0 0 12 18" fill="none" xmlns="http://www.w3.org/2000/svg">
<path d="M2.875 3.7915C2.875 2.9627 3.20424 2.16785 3.79029 1.5818C4.37634 0.995744 5.1712 0.666504 6 0.666504C6.8288 0.666504 7.62366 0.995744 8.20971 1.5818C8.79576 2.16785 9.125 2.9627 9.125 3.7915V8.99984C9.125 9.82864 8.79576 10.6235 8.20971 11.2095C7.62366 11.7956 6.8288 12.1248 6 12.1248C5.1712 12.1248 4.37634 11.7956 3.79029 11.2095C3.20424 10.6235 2.875 9.82864 2.875 8.99984V3.7915Z" fill="#EA1763"/>
<path d="M6.47116 13.6848L6.02116 13.73V14.1823V16.2917V16.7917H6.52116H9.64616C9.65168 16.7917 9.65698 16.7939 9.66089 16.7978C9.6648 16.8017 9.66699 16.807 9.66699 16.8125C9.66699 16.818 9.6648 16.8233 9.66089 16.8272C9.65698 16.8311 9.65169 16.8333 9.64616 16.8333H2.35449C2.34896 16.8333 2.34367 16.8311 2.33976 16.8272C2.33585 16.8233 2.33366 16.818 2.33366 16.8125C2.33366 16.807 2.33585 16.8017 2.33976 16.7978C2.34367 16.7939 2.34897 16.7917 2.35449 16.7917H5.47949H5.97949V16.2917V14.1823V13.73L5.52949 13.6848C4.36812 13.5681 3.2915 13.0241 2.50851 12.1585C1.72552 11.2928 1.29198 10.1672 1.29199 9.00001V9V7.95833C1.29199 7.95281 1.29419 7.94751 1.29809 7.9436C1.302 7.93969 1.3073 7.9375 1.31283 7.9375C1.31835 7.9375 1.32365 7.93969 1.32756 7.9436C1.33146 7.94751 1.33366 7.95281 1.33366 7.95833V9C1.33366 10.2377 1.82532 11.4247 2.70049 12.2998C3.57566 13.175 4.76265 13.6667 6.00033 13.6667C7.238 13.6667 8.42499 13.175 9.30016 12.2998C10.1753 11.4247 10.667 10.2377 10.667 9V7.95833C10.667 7.95281 10.6692 7.94751 10.6731 7.9436C10.677 7.93969 10.6823 7.9375 10.6878 7.9375C10.6934 7.9375 10.6986 7.93969 10.7026 7.9436C10.7065 7.94751 10.7087 7.95281 10.7087 7.95833V9C10.7087 10.1672 10.2751 11.2928 9.49214 12.1585C8.70915 13.0241 7.63253 13.5681 6.47116 13.6848Z" stroke="#EA1763"/>
</svg>
