<svg width="18" height="18" viewBox="0 0 18 18" fill="none" xmlns="http://www.w3.org/2000/svg">
<path d="M17.3091 1.63287L17.309 1.63286L17.3077 1.63775L13.2139 16.1612L13.2134 16.1631C13.1726 16.31 13.0875 16.4408 12.9698 16.5377C12.8563 16.631 12.7178 16.6885 12.5719 16.7031L12.4853 16.7031C12.4851 16.7031 12.4849 16.7031 12.4846 16.7031C12.3436 16.7026 12.2056 16.6624 12.0864 16.5871L11.8192 17.0098L12.0863 16.5871C11.9672 16.5118 11.8716 16.4044 11.8107 16.2773C11.8106 16.277 11.8105 16.2768 11.8103 16.2765L9.07742 10.5045L12.9866 6.59532C13.0947 6.49485 13.1821 6.37404 13.2436 6.23977C13.3071 6.10122 13.3417 5.95122 13.3455 5.79887C13.3492 5.64652 13.322 5.49499 13.2654 5.35348C13.2088 5.21197 13.1241 5.08344 13.0163 4.97568C12.9085 4.86792 12.78 4.78318 12.6385 4.72659C12.497 4.67001 12.3455 4.64277 12.1931 4.64652C12.0408 4.65027 11.8908 4.68494 11.7522 4.74841C11.6179 4.80997 11.497 4.89739 11.3965 5.00561L7.48737 8.92233L1.74501 6.20428L1.74463 6.2041C1.60372 6.13754 1.48541 6.03113 1.40436 5.89803L0.980402 6.1562L1.40436 5.89803C1.32406 5.76617 1.28381 5.61385 1.28845 5.45961C1.29753 5.30524 1.3546 5.15752 1.45175 5.03712C1.5498 4.9156 1.68368 4.8281 1.83434 4.78708L1.83435 4.7871L1.83859 4.7859L16.3933 0.684342L16.395 0.683861C16.5477 0.640242 16.7103 0.646243 16.8595 0.701001C17.0065 0.755011 17.1329 0.853705 17.221 0.983157C17.2799 1.07824 17.3183 1.18457 17.3338 1.29536L17.8289 1.22618L17.3338 1.29537C17.3495 1.40834 17.3411 1.52339 17.3091 1.63287Z" fill="white" stroke="white"/>
</svg>
