<svg width="24" height="24" viewBox="0 0 24 24" fill="none" xmlns="http://www.w3.org/2000/svg">
<path d="M10.4969 1.87022C11.4267 1.33192 12.5733 1.33193 13.5031 1.87022L20.0031 5.63338C20.9296 6.16975 21.5 7.15914 21.5 8.22966V15.7703C21.5 16.8409 20.9296 17.8303 20.0031 18.3666L13.5031 22.1298C12.5733 22.6681 11.4267 22.6681 10.4969 22.1298L3.99689 18.3666C3.07044 17.8303 2.5 16.8409 2.5 15.7703V8.22966C2.5 7.15914 3.07044 6.16974 3.99689 5.63338L10.4969 1.87022ZM12 15C12.7956 15 13.5587 14.6839 14.1213 14.1213C14.6839 13.5587 15 12.7956 15 12C15 11.2044 14.6839 10.4413 14.1213 9.87868C13.5587 9.31607 12.7956 9 12 9C11.2044 9 10.4413 9.31607 9.87868 9.87868C9.31607 10.4413 9 11.2044 9 12C9 12.7956 9.31607 13.5587 9.87868 14.1213C10.4413 14.6839 11.2044 15 12 15Z" fill="black"/>
</svg>
