<svg width="16" height="18" viewBox="0 0 16 18" fill="none" xmlns="http://www.w3.org/2000/svg">
<path d="M6.49657 0.703473C7.42635 0.165178 8.573 0.165178 9.50278 0.703473L14.4194 3.54996C15.3459 4.08633 15.9163 5.07573 15.9163 6.14624V11.8536C15.9163 12.9241 15.3459 13.9135 14.4194 14.4499L9.50278 17.2964C8.573 17.8347 7.42635 17.8347 6.49657 17.2964L1.5799 14.4499C0.653448 13.9135 0.0830078 12.9241 0.0830078 11.8536V6.14624C0.0830078 5.07573 0.653448 4.08633 1.5799 3.54996L6.49657 0.703473ZM7.99967 11.4999C8.66272 11.4999 9.2986 11.2365 9.76744 10.7677C10.2363 10.2988 10.4997 9.66296 10.4997 8.99992C10.4997 8.33688 10.2363 7.70099 9.76744 7.23215C9.2986 6.76331 8.66272 6.49992 7.99967 6.49992C7.33663 6.49992 6.70075 6.76331 6.23191 7.23215C5.76307 7.70099 5.49967 8.33688 5.49967 8.99992C5.49967 9.66296 5.76307 10.2988 6.23191 10.7677C6.70075 11.2365 7.33663 11.4999 7.99967 11.4999Z" fill="white"/>
</svg>
