<svg width="21" height="20" viewBox="0 0 21 20" fill="none" xmlns="http://www.w3.org/2000/svg">
<path d="M18.625 4.91406V13.6641C18.625 14.1613 18.4275 14.6383 18.0758 14.9899C17.7242 15.3415 17.2473 15.5391 16.75 15.5391H4.25C3.75272 15.5391 3.27581 15.3415 2.92417 14.9899C2.57254 14.6383 2.375 14.1613 2.375 13.6641V4.91406C2.37706 4.41741 2.57526 3.9417 2.92645 3.59051C3.27763 3.23932 3.75335 3.04112 4.25 3.03906H16.75C17.2466 3.04112 17.7224 3.23932 18.0736 3.59051C18.4247 3.9417 18.6229 4.41741 18.625 4.91406ZM13 16.7891H8C7.83424 16.7891 7.67527 16.8549 7.55806 16.9721C7.44085 17.0893 7.375 17.2483 7.375 17.4141C7.375 17.5798 7.44085 17.7388 7.55806 17.856C7.67527 17.9732 7.83424 18.0391 8 18.0391H13C13.1658 18.0391 13.3247 17.9732 13.4419 17.856C13.5592 17.7388 13.625 17.5798 13.625 17.4141C13.625 17.2483 13.5592 17.0893 13.4419 16.9721C13.3247 16.8549 13.1658 16.7891 13 16.7891Z" fill="black"/>
</svg>
