<svg width="20" height="20" viewBox="0 0 20 20" fill="none" xmlns="http://www.w3.org/2000/svg">
<path d="M8.33317 18.3332H11.6665H8.33317ZM4.16651 7.49984C4.16651 5.95274 4.78109 4.46901 5.87505 3.37505C6.96901 2.28109 8.45274 1.6665 9.99984 1.6665C11.5469 1.6665 13.0307 2.28109 14.1246 3.37505C15.2186 4.46901 15.8332 5.95274 15.8332 7.49984C15.8337 8.43907 15.6066 9.36443 15.1712 10.1966C14.7357 11.0288 14.1051 11.7431 13.3332 12.2782L12.8815 14.4165C12.8217 14.8106 12.6226 15.1703 12.3203 15.4302C12.0181 15.6901 11.6327 15.8331 11.234 15.8332H8.76567C8.36702 15.8331 7.9816 15.6901 7.67933 15.4302C7.37706 15.1703 7.17797 14.8106 7.11817 14.4165L6.66651 12.2873C5.89434 11.7504 5.26365 11.0344 4.8283 10.2007C4.39295 9.36705 4.16588 8.44036 4.16651 7.49984ZM6.66651 12.4998H13.3332H6.66651Z" fill="#EA8917"/>
<path d="M8.3335 18.3335H11.6668" stroke="#EA8917" stroke-width="2" stroke-linecap="round" stroke-linejoin="round"/>
</svg>
