<svg width="16" height="17" viewBox="0 0 16 17" fill="none" xmlns="http://www.w3.org/2000/svg">
<path fill-rule="evenodd" clip-rule="evenodd" d="M4.05394 0.367929C4.10538 0.258643 4.19092 0.165519 4.29994 0.100112C4.40897 0.0347049 4.53668 -0.000105512 4.66723 2.40236e-07H11.3334C11.6 2.40236e-07 11.84 0.145715 11.9467 0.367929L15.9464 8.86793C15.9854 8.95108 16.0035 9.04111 15.9994 9.13146C15.9954 9.22181 15.9692 9.31018 15.9228 9.39013C15.8764 9.47008 15.811 9.53958 15.7314 9.59356C15.6517 9.64754 15.5598 9.68464 15.4624 9.70214H15.4598C15.2598 9.73857 15.0598 9.77014 14.8598 9.8005C12.8116 10.1064 10.7421 10.2789 8.66693 10.3166V16.3929C8.66693 16.5539 8.5967 16.7083 8.47168 16.8222C8.34667 16.936 8.17711 17 8.00031 17C7.82352 17 7.65396 16.936 7.52895 16.8222C7.40393 16.7083 7.3337 16.5539 7.3337 16.3929V10.3154C5.25857 10.2776 3.18903 10.1051 1.14083 9.79929C0.940844 9.76893 0.740859 9.73857 0.540874 9.70214H0.536874C0.43942 9.68453 0.34752 9.6473 0.267897 9.59318C0.188274 9.53905 0.122942 9.4694 0.0766782 9.38932C0.0304147 9.30924 0.00439059 9.22075 0.000508979 9.13033C-0.00337263 9.03991 0.0149865 8.94984 0.0542437 8.86671L4.05394 0.366715V0.367929Z" fill="#EA1763"/>
</svg>
