<svg width="14" height="18" viewBox="0 0 14 18" fill="none" xmlns="http://www.w3.org/2000/svg">
<path d="M11.3565 9.18165L11.3565 9.18166C11.6468 9.22186 11.924 9.31746 12.1711 9.46144C12.4181 9.60538 12.6292 9.7942 12.7925 10.0148C12.9558 10.2354 13.0683 10.4833 13.1246 10.7431C13.1805 11.0009 13.1802 11.2663 13.124 11.5239L13.09 11.6601L11.9218 15.6432L11.9218 15.6433C11.8685 15.8251 11.7631 15.9937 11.6128 16.1296C11.4645 16.2636 11.2784 16.3604 11.0724 16.407L10.9538 16.4277L8.04437 16.8219C7.79196 16.856 7.53574 16.813 7.31393 16.7016C7.09575 16.5919 6.92511 16.4234 6.82096 16.2244L6.77349 16.12L6.57077 15.6163C6.304 14.9526 5.86574 14.3661 5.29942 13.909L5.29336 13.9041L5.28714 13.8994L5.09356 13.7529L5.08732 13.7481L5.08093 13.7436L3.56019 12.6658C3.56001 12.6657 3.55983 12.6656 3.55965 12.6654C3.45621 12.5917 3.34631 12.5271 3.23131 12.4723L3.22103 12.4674L3.21054 12.463L3.07418 12.4055L3.06441 12.4013L3.05447 12.3976L0.961308 11.6174L0.960824 11.6172C0.918765 11.6016 0.886726 11.5765 0.865762 11.549L0.468047 11.852L0.86576 11.549C0.845066 11.5218 0.835389 11.4929 0.833949 11.466L0.334662 11.4927L0.833964 11.4663C0.817746 11.1597 1.02619 10.8197 1.90385 10.4061L1.90409 10.406C2.42386 10.1607 3.2374 10.1481 4.48517 10.4755C4.93265 10.5966 5.37382 10.2596 5.37382 9.79519V6.06437C5.37382 5.42646 5.50316 4.99404 5.71145 4.7292C5.90208 4.48683 6.21616 4.31269 6.77722 4.31269C7.31436 4.31269 7.62588 4.47511 7.81899 4.70134C8.02581 4.94365 8.16325 5.3366 8.18458 5.91673L8.18729 6.07756V7.43606C8.18729 8.18494 8.73964 8.81909 9.48143 8.92187L11.3565 9.18165ZM6.77709 1.16663L6.77746 1.16663C7.60522 1.16622 8.41895 1.35905 9.14574 1.72641C9.87243 2.09371 10.4881 2.62324 10.94 3.26521C11.3918 3.90697 11.6665 4.64174 11.742 5.40379C11.8026 6.01522 11.7336 6.63066 11.5405 7.21515C11.5348 7.23264 11.5233 7.24831 11.5007 7.26117C11.4762 7.2751 11.4406 7.28376 11.4001 7.27787C11.3468 7.27011 11.2895 7.23684 11.2439 7.15351C11.1958 7.06572 11.1789 6.94959 11.2054 6.84471C11.311 6.42689 11.3509 5.99427 11.3218 5.56103C11.2675 4.75591 10.9771 3.98358 10.4865 3.32997C9.99614 2.67668 9.32569 2.16831 8.55262 1.85795C7.77968 1.54763 6.93198 1.44631 6.10326 1.56416C5.27448 1.68201 4.49383 2.01495 3.84908 2.52904C3.20409 3.04332 2.7197 3.71946 2.45412 4.48431C2.18844 5.24946 2.15337 6.07022 2.35332 6.85375C2.48917 7.38608 2.72942 7.88538 3.05785 8.32718C2.98661 8.32474 2.91599 8.3236 2.84597 8.32379C2.63305 8.32435 2.50568 8.24264 2.45624 8.16208C2.08473 7.55688 1.86246 6.8807 1.80678 6.18318C1.73886 5.33241 1.92113 4.47906 2.33582 3.71644C2.7507 2.9535 3.3832 2.30923 4.16717 1.8578C4.95121 1.40633 5.85419 1.1664 6.77709 1.16663Z" fill="#00C5C5" stroke="#00C5C5"/>
</svg>
