<svg width="18" height="18" viewBox="0 0 18 18" fill="none" xmlns="http://www.w3.org/2000/svg">
<path d="M9.00033 16.8333C4.67397 16.8333 1.16699 13.3264 1.16699 9.00001C1.16699 4.67365 4.67397 1.16667 9.00033 1.16667C13.3267 1.16667 16.8337 4.67365 16.8337 9.00001C16.8337 13.3264 13.3267 16.8333 9.00033 16.8333ZM13.2765 8.0572C13.0264 7.80715 12.6873 7.66667 12.3337 7.66667H10.3337V4.83334C10.3337 4.47972 10.1932 4.14058 9.94313 3.89053C9.69309 3.64048 9.35395 3.50001 9.00033 3.50001C8.6467 3.50001 8.30757 3.64048 8.05752 3.89053C7.80747 4.14058 7.66699 4.47972 7.66699 4.83334V8.16667C7.66699 9.35948 8.64085 10.3333 9.83366 10.3333H12.3337C12.6873 10.3333 13.0264 10.1929 13.2765 9.94281C13.5265 9.69277 13.667 9.35363 13.667 9.00001C13.667 8.64638 13.5265 8.30725 13.2765 8.0572Z" fill="#5B17EA" stroke="#5B17EA"/>
</svg>
