<svg width="16" height="19" viewBox="0 0 16 19" fill="none" xmlns="http://www.w3.org/2000/svg">
<path d="M5.5 1.4585C5.5 1.29274 5.56585 1.13376 5.68306 1.01655C5.80027 0.899344 5.95924 0.833496 6.125 0.833496H9.875C10.0408 0.833496 10.1997 0.899344 10.3169 1.01655C10.4342 1.13376 10.5 1.29274 10.5 1.4585C10.5 1.62426 10.4342 1.78323 10.3169 1.90044C10.1997 2.01765 10.0408 2.0835 9.875 2.0835H6.125C5.95924 2.0835 5.80027 2.01765 5.68306 1.90044C5.56585 1.78323 5.5 1.62426 5.5 1.4585ZM15.5 10.8335C15.5 12.3169 15.0601 13.7669 14.236 15.0003C13.4119 16.2336 12.2406 17.1949 10.8701 17.7626C9.49968 18.3302 7.99168 18.4788 6.53683 18.1894C5.08197 17.9 3.7456 17.1857 2.6967 16.1368C1.64781 15.0879 0.933503 13.7515 0.644114 12.2967C0.354725 10.8418 0.50325 9.33382 1.07091 7.96337C1.63856 6.59292 2.59986 5.42158 3.83323 4.59747C5.0666 3.77336 6.51664 3.3335 8 3.3335C9.98786 3.33762 11.8931 4.12913 13.2987 5.53476C14.7044 6.94038 15.4959 8.84564 15.5 10.8335ZM11.5391 7.29443C11.4206 7.17707 11.2605 7.11123 11.0938 7.11123C10.927 7.11123 10.7669 7.17707 10.6484 7.29443L7.55469 10.3882C7.43733 10.5067 7.37149 10.6667 7.37149 10.8335C7.37149 11.0003 7.43733 11.1603 7.55469 11.2788C7.67415 11.3943 7.83383 11.4589 8 11.4589C8.16618 11.4589 8.32585 11.3943 8.44532 11.2788L11.5391 8.18506C11.6564 8.06656 11.7223 7.90653 11.7223 7.73975C11.7223 7.57297 11.6564 7.41293 11.5391 7.29443Z" fill="#EA1763"/>
</svg>
