<svg width="24" height="24" viewBox="0 0 24 24" fill="none" xmlns="http://www.w3.org/2000/svg">
<path d="M22.6307 10.3766H21.7917V10.3333H12.4167V14.5H18.3036C17.4448 16.9255 15.137 18.6667 12.4167 18.6667C8.9651 18.6667 6.16667 15.8682 6.16667 12.4167C6.16667 8.9651 8.9651 6.16667 12.4167 6.16667C14.0099 6.16667 15.4594 6.76771 16.563 7.74948L19.5094 4.80312C17.649 3.06927 15.1604 2 12.4167 2C6.66406 2 2 6.66406 2 12.4167C2 18.1693 6.66406 22.8333 12.4167 22.8333C18.1693 22.8333 22.8333 18.1693 22.8333 12.4167C22.8333 11.7182 22.7615 11.0365 22.6307 10.3766Z" fill="#FFC107"/>
<path d="M3.20093 7.56823L6.62332 10.0781C7.54937 7.78542 9.79207 6.16667 12.4166 6.16667C14.0098 6.16667 15.4593 6.76771 16.5629 7.74948L19.5093 4.80312C17.6488 3.06927 15.1603 2 12.4166 2C8.41551 2 4.94572 4.25885 3.20093 7.56823Z" fill="#FF3D00"/>
<path d="M12.4167 22.8333C15.1074 22.8333 17.5522 21.8036 19.4006 20.1291L16.1766 17.401C15.0957 18.2231 13.7748 18.6677 12.4167 18.6666C9.70737 18.6666 7.40685 16.939 6.54019 14.5281L3.14331 17.1453C4.86727 20.5187 8.36831 22.8333 12.4167 22.8333Z" fill="#4CAF50"/>
<path d="M22.6308 10.3765H21.7917V10.3333H12.4167V14.4999H18.3037C17.8929 15.6543 17.1529 16.663 16.1751 17.4015L16.1766 17.4004L19.4006 20.1286C19.1725 20.3359 22.8334 17.6249 22.8334 12.4166C22.8334 11.7181 22.7615 11.0364 22.6308 10.3765Z" fill="#1976D2"/>
</svg>
