<svg width="12" height="20" viewBox="0 0 12 20" fill="none" xmlns="http://www.w3.org/2000/svg">
<path d="M4.68861 17.5C4.95254 17.5 5.1665 17.286 5.1665 17.0221C5.1665 16.7846 4.99149 16.5852 4.75941 16.5347C3.53106 16.2671 2.41787 15.6087 1.59017 14.6527C0.671906 13.5921 0.166491 12.2362 0.166504 10.8333V6.66668C0.166504 5.90063 0.317387 5.14209 0.61054 4.43436C0.903692 3.72662 1.33337 3.08356 1.87505 2.54189C2.41672 2.00021 3.05978 1.57053 3.76752 1.27738C4.47525 0.984227 5.23379 0.833344 5.99984 0.833344C6.76588 0.833344 7.52442 0.984227 8.23216 1.27738C8.93989 1.57053 9.58295 2.00021 10.1246 2.54189C10.6663 3.08356 11.096 3.72662 11.3891 4.43436C11.6823 5.14209 11.8332 5.90063 11.8332 6.66668V10.8333C11.8332 12.2362 11.3278 13.5921 10.4095 14.6527C9.5818 15.6087 8.46861 16.2671 7.24026 16.5347C7.00819 16.5852 6.83317 16.7846 6.83317 17.0221C6.83317 17.286 7.04713 17.5 7.31107 17.5H9.33317C9.79341 17.5 10.1665 17.8731 10.1665 18.3333C10.1665 18.7936 9.79341 19.1667 9.33317 19.1667H2.6665C2.20627 19.1667 1.83317 18.7936 1.83317 18.3333C1.83317 17.8731 2.20627 17.5 2.6665 17.5H4.68861ZM5.99984 9.16668C6.66288 9.16668 7.29876 8.90328 7.7676 8.43444C8.23645 7.9656 8.49984 7.32972 8.49984 6.66668C8.49984 6.00363 8.23645 5.36775 7.7676 4.89891C7.29876 4.43007 6.66288 4.16668 5.99984 4.16668C5.3368 4.16668 4.70091 4.43007 4.23207 4.89891C3.76323 5.36775 3.49984 6.00363 3.49984 6.66668C3.49984 7.32972 3.76323 7.9656 4.23207 8.43444C4.70091 8.90328 5.3368 9.16668 5.99984 9.16668Z" fill="#EA1763"/>
</svg>
